<?xml version="1.0" encoding="utf-8"?>
<!-- Generator: Adobe Illustrator 19.2.1, SVG Export Plug-In . SVG Version: 6.00 Build 0)  -->
<!DOCTYPE svg PUBLIC "-//W3C//DTD SVG 1.1//EN" "http://www.w3.org/Graphics/SVG/1.1/DTD/svg11.dtd">
<svg version="1.1" id="Layer_1" xmlns="http://www.w3.org/2000/svg" xmlns:xlink="http://www.w3.org/1999/xlink" x="0px" y="0px"
	 viewBox="0 0 1366.3 281.7" style="enable-background:new 0 0 1366.3 281.7;" xml:space="preserve">
<style type="text/css">
	.st0{fill:#FFFFFF;}
</style>
<g>
	<path class="st0" d="M0,262.2l2-5.4c2.6,1.2,5.4,1.8,9,1.8c10.2,0,17-5.2,17-18.4V128.4h6v111.8c0,16.6-9.2,24-23,24
		C7.2,264.2,3.4,263.6,0,262.2z M25.2,106c0-3.2,2.8-5.8,5.8-5.8c3.2,0,5.8,2.6,5.8,5.8c0,3.2-2.6,5.8-5.8,5.8
		C28,111.8,25.2,109.2,25.2,106z"/>
	<path class="st0" d="M67.2,176.6c0-28.4,17.8-50.6,45-50.6c27.4,0,45,22.2,45,50.6c0,28.4-17.6,50.8-45,50.8
		C85,227.4,67.2,205,67.2,176.6z M150.6,176.6c0-23.4-13.6-45.2-38.4-45.2c-24.6,0-38.4,21.8-38.4,45.2c0,23.6,13.8,45.4,38.4,45.4
		C137,222,150.6,200.2,150.6,176.6z"/>
	<path class="st0" d="M182,212l4.8-4.4c6,8,16.4,14.4,30.6,14.4c17.8,0,28.6-9.6,28.6-22.4c0-14.2-14.4-18-29.2-22
		c-16-4.2-32.8-8.4-32.8-26c0-14.2,12-25.6,32.8-25.6c16.6,0,27,6.6,33.2,14.6l-4.4,4c-5.6-8-15.8-13.2-28.8-13.2
		c-16.8,0-26.8,8.8-26.8,20.2c0,12.6,13.4,15.8,27.6,19.6c16.6,4.2,34.4,8.8,34.4,28.4c0,15-11.2,27.8-34.6,27.8
		C202.2,227.4,191.6,223,182,212z"/>
	<path class="st0" d="M280,176.6c0-28,19.4-50.6,45.4-50.6c29.6,0,44.8,23.8,44.8,50.6v2h-83.4c0.6,23.6,16,43.4,40.6,43.4
		c13.6,0,24.6-5,33.6-14.6l3.6,3.8c-9.8,10.2-21,16.2-37.2,16.2C299.4,227.4,280,206,280,176.6z M325.2,131.4
		c-24.8,0-37.8,22.8-38.4,41.8h77C363.8,154.6,351.6,131.4,325.2,131.4z"/>
	<path class="st0" d="M409.4,208.4v53.4h-6V128.4h6v16.2c6.6-10,19.6-18.6,34.8-18.6c26,0,43.2,20,43.2,50.6
		c0,30.4-17.2,50.8-43.2,50.8C429.8,227.4,417.2,219.8,409.4,208.4z M480.8,176.6c0-25.4-13-45.2-36.6-45.2c-15,0-28.8,9-34.8,19.2
		v51.8c6,10.2,19.8,19.6,34.8,19.6C467.8,222,480.8,202,480.8,176.6z"/>
	<path class="st0" d="M585,225v-67.8c0-20.2-10-25.8-25-25.8c-13.2,0-27.4,8.6-34.2,18.2V225h-6V91.6h6v52
		c7.2-8.8,21.6-17.6,35-17.6c19.2,0,30.2,8.4,30.2,31.2V225H585z"/>
	<path class="st0" d="M653.5,225V45H708v132.6h68.3V225H653.5z"/>
	<path class="st0" d="M864.4,225l-6.5-21.1h-64.8l-6.5,21.1h-61.8L791.2,45h68.6L926.2,225H864.4z M825.5,98.4l-17.8,58.1h35.6
		L825.5,98.4z"/>
	<path class="st0" d="M889.2,135.1c0-55.6,42.7-93.2,99.1-93.2c47.3,0,71,27.5,81.8,52.4l-47,21.9c-4.6-14-18.6-26.2-34.8-26.2
		c-26.2,0-43.7,20-43.7,45.1s17.5,45.1,43.7,45.1c16.2,0,30.2-12.2,34.8-26.2l47,21.6c-10.5,24-34.6,52.7-81.8,52.7
		C931.9,228.3,889.2,190.5,889.2,135.1z"/>
	<path class="st0" d="M1049.3,151.1V45h55.4v104.2c0,17.3,11.3,31.1,33.8,31.1c22.1,0,33.5-13.8,33.5-31.1V45h55.4v105.8
		c0,44.8-28.1,77.5-88.8,77.5S1049.3,195.6,1049.3,151.1z"/>
	<path class="st0" d="M1204.8,199.7l28.4-40.5c13.5,13,33.8,23.2,58.1,23.2c10.3,0,20-2.7,20-9.7c0-17.3-100.4,0.3-100.4-70.7
		c0-30.5,25.4-59.7,74.8-59.7c29.4,0,55.9,8.4,76.4,25.1l-29.2,38.6c-15.7-11.9-35.9-17.8-52.9-17.8c-10.8,0-13.8,3.5-13.8,8.1
		c0,17,100.2,2.4,100.2,69.4c0,39.7-29.4,62.6-77.8,62.6C1250.2,228.3,1224,216.9,1204.8,199.7z"/>
</g>
</svg>
