<?xml version="1.0" encoding="UTF-8" standalone="no"?>
<svg width="1367px" height="224px" viewBox="0 0 1367 224" version="1.1" xmlns="http://www.w3.org/2000/svg" xmlns:xlink="http://www.w3.org/1999/xlink">
    <!-- Generator: Sketch 3.8.3 (29802) - http://www.bohemiancoding.com/sketch -->
    <title>logo-color</title>
    <desc>Created with Sketch.</desc>
    <defs></defs>
    <g id="Page-1" stroke="none" stroke-width="1" fill="none" fill-rule="evenodd">
        <g id="logo-color" fill="#161616">
            <g id="Group">
                <path d="M31,59.2 C28,59.2 25.2,61.8 25.2,65 C25.2,68.2 28,70.8 31,70.8 C34.2,70.8 36.8,68.2 36.8,65 C36.8,61.8 34.2,59.2 31,59.2 L31,59.2 Z" id="Shape"></path>
                <path d="M28,199.2 C28,212.4 21.2,217.6 11,217.6 C7.4,217.6 4.6,217 2,215.8 L0,221.2 C3.4,222.6 7.2,223.2 11,223.2 C24.8,223.2 34,215.8 34,199.2 L34,87.4 L28,87.4 L28,199.2 L28,199.2 Z" id="Shape"></path>
                <path d="M112.2,85 C85,85 67.2,107.2 67.2,135.6 C67.2,164 85,186.4 112.2,186.4 C139.6,186.4 157.2,164 157.2,135.6 C157.2,107.2 139.6,85 112.2,85 L112.2,85 Z M112.2,181 C87.6,181 73.8,159.2 73.8,135.6 C73.8,112.2 87.6,90.4 112.2,90.4 C137,90.4 150.6,112.2 150.6,135.6 C150.6,159.2 137,181 112.2,181 L112.2,181 Z" id="Shape"></path>
                <path d="M217.6,130.2 C203.4,126.4 190,123.2 190,110.6 C190,99.2 200,90.4 216.8,90.4 C229.8,90.4 240,95.6 245.6,103.6 L250,99.6 C243.8,91.6 233.4,85 216.8,85 C196,85 184,96.4 184,110.6 C184,128.2 200.8,132.4 216.8,136.6 C231.6,140.6 246,144.4 246,158.6 C246,171.4 235.2,181 217.4,181 C203.2,181 192.8,174.6 186.8,166.6 L182,171 C191.6,182 202.2,186.4 217.4,186.4 C240.8,186.4 252,173.6 252,158.6 C252,139 234.2,134.4 217.6,130.2 L217.6,130.2 Z" id="Shape"></path>
                <path d="M325.4,85 C299.4,85 280,107.6 280,135.6 C280,165 299.4,186.4 327.4,186.4 C343.6,186.4 354.8,180.4 364.6,170.2 L361,166.4 C352,176 341,181 327.4,181 C302.8,181 287.4,161.2 286.8,137.6 L370.2,137.6 L370.2,135.6 C370.2,108.8 355,85 325.4,85 L325.4,85 Z M286.8,132.2 C287.4,113.2 300.4,90.4 325.2,90.4 C351.6,90.4 363.8,113.6 363.8,132.2 L286.8,132.2 L286.8,132.2 Z" id="Shape"></path>
                <path d="M444.2,85 C429,85 416,93.6 409.4,103.6 L409.4,87.4 L403.4,87.4 L403.4,220.8 L409.4,220.8 L409.4,167.4 C417.2,178.8 429.8,186.4 444.2,186.4 C470.2,186.4 487.4,166 487.4,135.6 C487.4,105 470.2,85 444.2,85 L444.2,85 Z M444.2,181 C429.2,181 415.4,171.6 409.4,161.4 L409.4,109.6 C415.4,99.4 429.2,90.4 444.2,90.4 C467.8,90.4 480.8,110.2 480.8,135.6 C480.8,161 467.8,181 444.2,181 L444.2,181 Z" id="Shape"></path>
                <path d="M560.8,85 C547.4,85 533,93.8 525.8,102.6 L525.8,50.6 L519.8,50.6 L519.8,184 L525.8,184 L525.8,108.6 C532.6,99 546.8,90.4 560,90.4 C575,90.4 585,96 585,116.2 L585,184 L591,184 L591,116.2 C591,93.4 580,85 560.8,85 L560.8,85 Z" id="Shape"></path>
                <path d="M1266.2,55.3 C1266.2,50.7 1269.2,47.2 1280,47.2 C1297,47.2 1317.2,53.1 1332.9,65 L1362.1,26.4 C1341.6,9.7 1315.1,1.3 1285.7,1.3 C1259.4,1.3 1239.9,9.6 1227.4,21.9 L1227.4,4 L1172,4 L1172,108.2 C1172,125.5 1160.6,139.3 1138.5,139.3 C1116,139.3 1104.7,125.5 1104.7,108.2 L1104.7,4 L1049.3,4 L1049.3,23.2 C1035.6,10.4 1016,0.9 988.3,0.9 C935.1,0.9 894.1,34.4 889.6,84.8 L859.8,4 L791.2,4 L742.3,136.6 L708,136.6 L708,4 L653.5,4 L653.5,184 L724.8,184 L776.3,184 L786.6,184 L793.1,162.9 L857.9,162.9 L864.4,184 L926.2,184 L918,161.9 C935.7,178 960.3,187.3 988.3,187.3 C1024.3,187.3 1046.9,170.6 1060.2,152 C1073.6,173.7 1099.4,187.3 1138.6,187.3 C1171.2,187.3 1194.4,177.9 1208.9,162.2 C1227.7,177.4 1252.9,187.3 1288.6,187.3 C1337,187.3 1366.4,164.4 1366.4,124.7 C1366.4,57.7 1266.2,72.3 1266.2,55.3 L1266.2,55.3 Z M807.7,115.5 L825.5,57.4 L843.3,115.5 L807.7,115.5 L807.7,115.5 Z M1023.1,113 C1018.5,127 1004.5,139.2 988.3,139.2 C962.1,139.2 944.6,119.2 944.6,94.1 C944.6,69 962.1,49 988.3,49 C1004.5,49 1018.5,61.2 1023.1,75.2 L1049.3,63 L1049.3,110.1 C1049.3,115.5 1049.7,120.6 1050.6,125.6 L1023.1,113 L1023.1,113 Z M1291.3,141.4 C1267,141.4 1246.7,131.2 1233.2,118.2 L1225.4,129.3 C1226.7,123.1 1227.4,116.6 1227.4,109.8 L1227.4,100.3 C1255.9,125.3 1311.3,118.9 1311.3,131.7 C1311.3,138.7 1301.6,141.4 1291.3,141.4 L1291.3,141.4 Z" id="Shape"></path>
            </g>
        </g>
    </g>
</svg>