<?xml version="1.0" encoding="UTF-8"?>
<svg width="200px" height="33px" viewBox="0 0 200 33" version="1.1" xmlns="http://www.w3.org/2000/svg" xmlns:xlink="http://www.w3.org/1999/xlink">
    <!-- Generator: Sketch 41.2 (35397) - http://www.bohemiancoding.com/sketch -->
    <title>Group 8</title>
    <desc>Created with Sketch.</desc>
    <defs>
        <linearGradient x1="101.999998%" y1="100.999999%" x2="0%" y2="6.24500451e-15%" id="linearGradient-1">
            <stop stop-color="#070051" offset="0%"></stop>
            <stop stop-color="#00A2FF" offset="100%"></stop>
        </linearGradient>
    </defs>
    <g id="Page-1" stroke="none" stroke-width="1" fill="none" fill-rule="evenodd">
        <g id="Desktop-HD-Copy" transform="translate(-250.000000, -34.000000)" fill="url(#linearGradient-1)">
            <g id="Group-5">
                <g id="Group-8" transform="translate(250.000000, 34.000000)">
                    <path d="M4.506218,8.69411955 C4.06730066,8.69411955 3.65764448,9.07725024 3.65764448,9.54879571 C3.65764448,10.0203412 4.06730066,10.4034719 4.506218,10.4034719 C4.97439649,10.4034719 5.35479151,10.0203412 5.35479151,9.54879571 C5.35479151,9.07725024 4.97439649,8.69411955 4.506218,8.69411955 Z M4.09656181,29.2947621 C4.09656181,31.2398872 3.10168252,32.0061486 1.60936357,32.0061486 C1.08266277,32.0061486 0.673006584,31.9177338 0.292611558,31.7409043 L0,32.5366372 C0.497439649,32.7429384 1.05340161,32.8313532 1.60936357,32.8313532 C3.62838332,32.8313532 4.97439649,31.7409043 4.97439649,29.2947621 L4.97439649,12.8201424 L4.09656181,12.8201424 L4.09656181,29.2947621 Z M16.3862473,12.3780685 C12.4067301,12.3780685 9.8024872,15.6494152 9.8024872,19.8343812 C9.8024872,24.0193472 12.4067301,27.3201655 16.3862473,27.3201655 C20.3950256,27.3201655 22.9700073,24.0193472 22.9700073,19.8343812 C22.9700073,15.6494152 20.3950256,12.3780685 16.3862473,12.3780685 Z M16.3862473,26.5244325 C12.7871251,26.5244325 10.7681053,23.312029 10.7681053,19.8343812 C10.7681053,16.386205 12.7871251,13.1738015 16.3862473,13.1738015 C20.0146306,13.1738015 22.0043892,16.386205 22.0043892,19.8343812 C22.0043892,23.312029 20.0146306,26.5244325 16.3862473,26.5244325 Z M31.8361375,19.0386482 C29.7585955,18.478688 27.798098,18.0071425 27.798098,16.1504323 C27.798098,14.4705515 29.2611558,13.1738015 31.7190929,13.1738015 C33.621068,13.1738015 35.113387,13.9400629 35.9326993,15.1189265 L36.5764448,14.5294947 C35.6693489,13.350631 34.1477688,12.3780685 31.7190929,12.3780685 C28.6759327,12.3780685 26.9202634,14.0579492 26.9202634,16.1504323 C26.9202634,18.7439323 29.3782004,19.3628357 31.7190929,19.9817392 C33.8844184,20.571171 35.9912217,21.1311312 35.9912217,23.2236143 C35.9912217,25.1097961 34.4111192,26.5244325 31.8068764,26.5244325 C29.7293343,26.5244325 28.2077542,25.5813416 27.3299195,24.4024779 L26.6276518,25.0508529 C28.0321873,26.6717905 29.5830285,27.3201655 31.8068764,27.3201655 C35.2304316,27.3201655 36.8690563,25.4339836 36.8690563,23.2236143 C36.8690563,20.3353983 34.2648135,19.6575517 31.8361375,19.0386482 Z M47.6079005,12.3780685 C43.8039503,12.3780685 40.9656181,15.7083584 40.9656181,19.8343812 C40.9656181,24.1667052 43.8039503,27.3201655 47.9005121,27.3201655 C50.2706657,27.3201655 51.9092904,26.4360178 53.3430871,24.9329666 L52.8163862,24.3730063 C51.4996342,25.7876427 49.8902707,26.5244325 47.9005121,26.5244325 C44.3013899,26.5244325 42.0482809,23.6067449 41.9604974,20.1290971 L54.1623994,20.1290971 L54.1623994,19.8343812 C54.1623994,15.8851879 51.9385516,12.3780685 47.6079005,12.3780685 Z M41.9604974,19.3333642 C42.0482809,16.5335629 43.950256,13.1738015 47.5786394,13.1738015 C51.4411119,13.1738015 53.2260424,16.5925061 53.2260424,19.3333642 L41.9604974,19.3333642 Z M64.9305048,12.3780685 C62.7066569,12.3780685 60.8046818,13.645347 59.8390636,15.1189265 L59.8390636,12.7317276 L58.961229,12.7317276 L58.961229,32.3892793 L59.8390636,32.3892793 L59.8390636,24.5203643 C60.9802487,26.200245 62.8237015,27.3201655 64.9305048,27.3201655 C68.734455,27.3201655 71.2509144,24.3140632 71.2509144,19.8343812 C71.2509144,15.3252277 68.734455,12.3780685 64.9305048,12.3780685 Z M64.9305048,26.5244325 C62.7359181,26.5244325 60.7168983,25.1392677 59.8390636,23.6362165 L59.8390636,16.0030743 C60.7168983,14.5000231 62.7359181,13.1738015 64.9305048,13.1738015 C68.3833211,13.1738015 70.2852963,16.0914891 70.2852963,19.8343812 C70.2852963,23.5772734 68.3833211,26.5244325 64.9305048,26.5244325 Z M82.0775421,12.4370117 C80.1170446,12.4370117 78.0102414,13.7337617 76.9568398,15.0305118 L76.9568398,7.36789792 L76.0790051,7.36789792 L76.0790051,27.0254496 L76.9568398,27.0254496 L76.9568398,15.9146595 C77.9517191,14.5000231 80.0292612,13.2327447 81.9604974,13.2327447 C84.1550841,13.2327447 85.6181419,14.0579492 85.6181419,17.03458 L85.6181419,27.0254496 L86.4959766,27.0254496 L86.4959766,17.03458 C86.4959766,13.6748185 84.886613,12.4370117 82.0775421,12.4370117 Z M185.32553,8.01627294 C185.32553,7.33842633 185.764448,6.82267348 187.34455,6.82267348 C189.831748,6.82267348 192.787125,7.69208543 195.084126,9.44564514 L199.356255,3.75762794 C196.356986,1.29675003 192.479883,0.0589431834 188.178493,0.0589431834 C184.330651,0.0589431834 181.477688,1.28201424 179.648866,3.09451713 L179.648866,0.456809671 L171.543526,0.456809671 L171.543526,15.8115089 C171.543526,18.3608016 169.87564,20.3943415 166.642282,20.3943415 C163.350402,20.3943415 161.697147,18.3608016 161.697147,15.8115089 L161.697147,0.456809671 L153.591807,0.456809671 L153.591807,3.28608247 C151.587418,1.39990061 148.719824,0 144.667154,0 C136.883687,0 130.88515,4.93649161 130.226774,12.3633327 L125.866862,0.456809671 L115.830285,0.456809671 L108.675933,19.996475 L103.657644,19.996475 L103.657644,0.456809671 L95.6839795,0.456809671 L95.6839795,26.9812422 L106.115582,26.9812422 L113.650329,26.9812422 L115.157279,26.9812422 L116.108266,23.8719893 L125.588881,23.8719893 L126.539868,26.9812422 L135.581565,26.9812422 L134.381858,23.7246313 C136.97147,26.0970944 140.570593,27.4675235 144.667154,27.4675235 C149.934162,27.4675235 153.240673,25.0066456 155.18654,22.2657875 C157.147037,25.4634552 160.921726,27.4675235 166.656913,27.4675235 C171.426481,27.4675235 174.820775,26.0823587 176.942209,23.7688387 C179.692758,26.0086797 183.379663,27.4675235 188.60278,27.4675235 C195.68398,27.4675235 199.985369,24.0930262 199.985369,18.2429153 C199.985369,8.36993204 185.32553,10.5213582 185.32553,8.01627294 Z M118.244331,16.887222 L120.848574,8.32572465 L123.452816,16.887222 L118.244331,16.887222 Z M149.758595,16.5188271 C149.085589,18.5818386 147.037308,20.3796057 144.667154,20.3796057 C140.833943,20.3796057 138.273592,17.4324465 138.273592,13.7337617 C138.273592,10.035077 140.833943,7.0879178 144.667154,7.0879178 C147.037308,7.0879178 149.085589,8.8856849 149.758595,10.9486963 L153.591807,9.15092922 L153.591807,16.0914891 C153.591807,16.887222 153.650329,17.6387476 153.782004,18.3755374 L149.758595,16.5188271 Z M188.997805,20.7037932 C185.442575,20.7037932 182.472568,19.200742 180.49744,17.2850885 L179.356255,18.9207619 C179.546452,18.0071425 179.648866,17.0493158 179.648866,16.0472817 L179.648866,14.6473811 C183.818581,18.33133 191.923921,17.3882391 191.923921,19.274421 C191.923921,20.3059267 190.504755,20.7037932 188.997805,20.7037932 Z" id="Combined-Shape"></path>
                </g>
            </g>
        </g>
    </g>
</svg>