<?xml version="1.0" encoding="utf-8"?>
<!-- Generator: Adobe Illustrator 19.2.1, SVG Export Plug-In . SVG Version: 6.00 Build 0)  -->
<!DOCTYPE svg PUBLIC "-//W3C//DTD SVG 1.1//EN" "http://www.w3.org/Graphics/SVG/1.1/DTD/svg11.dtd">
<svg version="1.1" id="Layer_1" xmlns="http://www.w3.org/2000/svg" xmlns:xlink="http://www.w3.org/1999/xlink" x="0px" y="0px"
	 viewBox="0 0 1366.3 281.7" style="enable-background:new 0 0 1366.3 281.7;" xml:space="preserve">
<style type="text/css">
	.st0{fill:#1E5BA5;}
</style>
<g>
	<path class="st0" d="M31,100.2c-3,0-5.8,2.6-5.8,5.8s2.8,5.8,5.8,5.8c3.2,0,5.8-2.6,5.8-5.8S34.2,100.2,31,100.2z"/>
	<path class="st0" d="M28,240.2c0,13.2-6.8,18.4-17,18.4c-3.6,0-6.4-0.6-9-1.8l-2,5.4c3.4,1.4,7.2,2,11,2c13.8,0,23-7.4,23-24V128.4
		h-6V240.2z"/>
	<path class="st0" d="M112.2,126c-27.2,0-45,22.2-45,50.6c0,28.4,17.8,50.8,45,50.8c27.4,0,45-22.4,45-50.8
		C157.2,148.2,139.6,126,112.2,126z M112.2,222c-24.6,0-38.4-21.8-38.4-45.4c0-23.4,13.8-45.2,38.4-45.2c24.8,0,38.4,21.8,38.4,45.2
		C150.6,200.2,137,222,112.2,222z"/>
	<path class="st0" d="M217.6,171.2c-14.2-3.8-27.6-7-27.6-19.6c0-11.4,10-20.2,26.8-20.2c13,0,23.2,5.2,28.8,13.2l4.4-4
		c-6.2-8-16.6-14.6-33.2-14.6c-20.8,0-32.8,11.4-32.8,25.6c0,17.6,16.8,21.8,32.8,26c14.8,4,29.2,7.8,29.2,22
		c0,12.8-10.8,22.4-28.6,22.4c-14.2,0-24.6-6.4-30.6-14.4L182,212c9.6,11,20.2,15.4,35.4,15.4c23.4,0,34.6-12.8,34.6-27.8
		C252,180,234.2,175.4,217.6,171.2z"/>
	<path class="st0" d="M325.4,126c-26,0-45.4,22.6-45.4,50.6c0,29.4,19.4,50.8,47.4,50.8c16.2,0,27.4-6,37.2-16.2l-3.6-3.8
		c-9,9.6-20,14.6-33.6,14.6c-24.6,0-40-19.8-40.6-43.4h83.4v-2C370.2,149.8,355,126,325.4,126z M286.8,173.2
		c0.6-19,13.6-41.8,38.4-41.8c26.4,0,38.6,23.2,38.6,41.8H286.8z"/>
	<path class="st0" d="M444.2,126c-15.2,0-28.2,8.6-34.8,18.6v-16.2h-6v133.4h6v-53.4c7.8,11.4,20.4,19,34.8,19
		c26,0,43.2-20.4,43.2-50.8C487.4,146,470.2,126,444.2,126z M444.2,222c-15,0-28.8-9.4-34.8-19.6v-51.8c6-10.2,19.8-19.2,34.8-19.2
		c23.6,0,36.6,19.8,36.6,45.2C480.8,202,467.8,222,444.2,222z"/>
	<path class="st0" d="M560.8,126c-13.4,0-27.8,8.8-35,17.6v-52h-6V225h6v-75.4c6.8-9.6,21-18.2,34.2-18.2c15,0,25,5.6,25,25.8V225h6
		v-67.8C591,134.4,580,126,560.8,126z"/>
	<path class="st0" d="M1266.2,96.3c0-4.6,3-8.1,13.8-8.1c17,0,37.2,5.9,52.9,17.8l29.2-38.6c-20.5-16.7-47-25.1-76.4-25.1
		c-26.3,0-45.8,8.3-58.3,20.6V45H1172v104.2c0,17.3-11.4,31.1-33.5,31.1c-22.5,0-33.8-13.8-33.8-31.1V45h-55.4v19.2
		c-13.7-12.8-33.3-22.3-61-22.3c-53.2,0-94.2,33.5-98.7,83.9L859.8,45h-68.6l-48.9,132.6H708V45h-54.5v180h71.3h51.5h10.3l6.5-21.1
		h64.8l6.5,21.1h61.8l-8.2-22.1c17.7,16.1,42.3,25.4,70.3,25.4c36,0,58.6-16.7,71.9-35.3c13.4,21.7,39.2,35.3,78.4,35.3
		c32.6,0,55.8-9.4,70.3-25.1c18.8,15.2,44,25.1,79.7,25.1c48.4,0,77.8-22.9,77.8-62.6C1366.4,98.7,1266.2,113.3,1266.2,96.3z
		 M807.7,156.5l17.8-58.1l17.8,58.1H807.7z M1023.1,154c-4.6,14-18.6,26.2-34.8,26.2c-26.2,0-43.7-20-43.7-45.1
		c0-25.1,17.5-45.1,43.7-45.1c16.2,0,30.2,12.2,34.8,26.2l26.2-12.2v47.1c0,5.4,0.4,10.5,1.3,15.5L1023.1,154z M1291.3,182.4
		c-24.3,0-44.6-10.2-58.1-23.2l-7.8,11.1c1.3-6.2,2-12.7,2-19.5v-9.5c28.5,25,83.9,18.6,83.9,31.4
		C1311.3,179.7,1301.6,182.4,1291.3,182.4z"/>
</g>
</svg>
