<?xml version="1.0" encoding="UTF-8"?>
<svg width="92px" height="15px" viewBox="0 0 92 15" version="1.1" xmlns="http://www.w3.org/2000/svg" xmlns:xlink="http://www.w3.org/1999/xlink">
    <!-- Generator: Sketch 43.2 (39069) - http://www.bohemiancoding.com/sketch -->
    <title>joseph lacus</title>
    <desc>Created with Sketch.</desc>
    <defs></defs>
    <g id="MBC-Marketing" stroke="none" stroke-width="1" fill="none" fill-rule="evenodd">
        <g id="Invoice-001---MBS" transform="translate(-195.000000, -33.000000)" fill="#FCFCFC">
            <path d="M197.944,34.792 C197.944,34.44 197.656,34.152 197.304,34.152 C196.952,34.152 196.648,34.44 196.648,34.792 C196.648,35.128 196.952,35.448 197.304,35.448 C197.656,35.448 197.944,35.128 197.944,34.792 Z M197.672,46.328 L197.672,37.48 L196.936,37.48 L196.936,46.248 C196.936,46.92 196.616,47.176 196.088,47.176 C195.88,47.176 195.736,47.16 195.512,47.128 L195.624,47.816 C195.768,47.832 196.024,47.848 196.2,47.848 C197.016,47.848 197.672,47.4 197.672,46.328 Z M207.568,41.24 C207.568,43.72 206.08,45.16 204.24,45.16 C202.368,45.16 200.928,43.72 200.928,41.24 C200.928,38.744 202.416,37.32 204.24,37.32 C206.128,37.32 207.568,38.744 207.568,41.24 Z M206.784,41.24 C206.784,39.352 205.872,37.976 204.24,37.976 C202.608,37.976 201.712,39.304 201.712,41.24 C201.712,43.128 202.624,44.504 204.24,44.504 C205.872,44.504 206.784,43.192 206.784,41.24 Z M215.512,43.016 C215.512,41.752 214.632,41.16 212.92,40.696 C211.576,40.328 211.128,39.976 211.128,39.272 C211.128,38.584 211.656,38.024 212.84,38.024 C213.56,38.024 214.264,38.216 214.952,38.568 L215.08,37.848 C214.472,37.544 213.72,37.336 212.872,37.336 C211.384,37.336 210.392,38.168 210.392,39.32 C210.392,40.472 211.112,41.016 212.696,41.448 C214.312,41.896 214.776,42.296 214.776,43.08 C214.776,43.96 214.04,44.456 212.92,44.456 C211.928,44.456 211.016,44.12 210.312,43.72 L210.168,44.456 C210.84,44.824 211.832,45.128 212.84,45.128 C214.408,45.128 215.512,44.376 215.512,43.016 Z M224.256,41.08 L224.256,41.24 L218.944,41.24 C218.944,43.16 219.84,44.504 221.52,44.504 C222.432,44.504 223.392,44.024 224.128,43.352 L224.24,44.056 C223.552,44.68 222.56,45.16 221.488,45.16 C219.504,45.16 218.176,43.688 218.176,41.24 C218.176,38.84 219.552,37.32 221.376,37.32 C223.296,37.32 224.256,39 224.256,41.08 Z M223.456,40.616 C223.408,39.144 222.688,37.944 221.376,37.944 C219.952,37.944 219.152,39.048 218.976,40.616 L223.456,40.616 Z M233.64,41.032 C233.64,43.768 232.008,45.096 230.184,45.096 C229.432,45.096 228.76,44.952 228.168,44.712 L228.168,47.736 L227.416,47.896 L227.416,37.48 L227.96,37.48 L228.152,38.568 C228.76,37.88 229.464,37.32 230.552,37.32 C232.216,37.32 233.64,38.504 233.64,41.032 Z M232.856,41.064 C232.856,39.08 231.88,38.008 230.536,38.008 C229.624,38.008 228.92,38.536 228.168,39.384 L228.168,43.976 C228.76,44.264 229.416,44.44 230.168,44.44 C231.672,44.44 232.856,43.368 232.856,41.064 Z M242.592,45 L242.592,39.672 C242.592,38.184 241.856,37.32 240.304,37.32 C239.312,37.32 238.496,37.816 237.584,38.6 L237.584,33.56 L236.832,33.72 L236.832,45 L237.584,45 L237.584,39.368 C238.528,38.488 239.392,38.008 240.224,38.008 C241.296,38.008 241.84,38.632 241.84,39.768 L241.84,45 L242.592,45 Z M251.68,45 L251.68,33.56 L250.944,33.72 L250.944,45 L251.68,45 Z M260.584,45 L260.056,45 L259.88,43.992 C259.096,44.68 258.168,45.16 257.224,45.16 C255.96,45.16 254.952,44.52 254.952,43.16 C254.952,41.48 256.232,40.584 259.848,40.248 L259.848,39.592 C259.848,38.536 259.224,38.024 258.184,38.024 C257.32,38.024 256.44,38.264 255.608,38.696 L255.512,37.992 C256.36,37.608 257.224,37.336 258.216,37.336 C259.752,37.336 260.584,38.12 260.584,39.56 L260.584,45 Z M259.848,43.304 L259.848,40.872 C256.744,41.208 255.72,41.864 255.72,43.096 C255.72,44.056 256.408,44.504 257.256,44.504 C258.056,44.504 259.032,44.024 259.848,43.304 Z M269.488,44.248 L269.392,43.544 C268.608,44.216 267.856,44.504 267.04,44.504 C265.344,44.504 264.432,43.128 264.432,41.24 C264.432,39.304 265.376,37.976 266.976,37.976 C267.84,37.976 268.544,38.28 269.296,38.92 L269.44,38.152 C268.784,37.656 267.952,37.32 267.008,37.32 C265.136,37.32 263.648,38.744 263.648,41.24 C263.648,43.72 265.12,45.16 266.96,45.16 C267.968,45.16 268.8,44.824 269.488,44.248 Z M278.232,45 L278.232,37.48 L277.48,37.48 L277.48,43.112 C276.536,43.992 275.672,44.472 274.84,44.472 C273.768,44.472 273.224,43.848 273.224,42.712 L273.224,37.48 L272.472,37.48 L272.472,42.776 C272.472,44.28 273.208,45.16 274.76,45.16 C275.752,45.16 276.584,44.664 277.496,43.864 L277.688,45 L278.232,45 Z M286.672,43.016 C286.672,41.752 285.792,41.16 284.08,40.696 C282.736,40.328 282.288,39.976 282.288,39.272 C282.288,38.584 282.816,38.024 284,38.024 C284.72,38.024 285.424,38.216 286.112,38.568 L286.24,37.848 C285.632,37.544 284.88,37.336 284.032,37.336 C282.544,37.336 281.552,38.168 281.552,39.32 C281.552,40.472 282.272,41.016 283.856,41.448 C285.472,41.896 285.936,42.296 285.936,43.08 C285.936,43.96 285.2,44.456 284.08,44.456 C283.088,44.456 282.176,44.12 281.472,43.72 L281.328,44.456 C282,44.824 282.992,45.128 284,45.128 C285.568,45.128 286.672,44.376 286.672,43.016 Z" id="joseph-lacus"></path>
        </g>
    </g>
</svg>