<?xml version="1.0" encoding="utf-8"?>
<!-- Generator: Adobe Illustrator 21.0.0, SVG Export Plug-In . SVG Version: 6.00 Build 0)  -->
<svg version="1.1" id="Layer_1" xmlns="http://www.w3.org/2000/svg" xmlns:xlink="http://www.w3.org/1999/xlink" x="0px" y="0px"
	 viewBox="0 0 72.1 10.9" style="enable-background:new 0 0 72.1 10.9;" xml:space="preserve">
<style type="text/css">
	.st0{fill:#3B3D3E;}
	.st1{enable-background:new    ;}
</style>
<title>joseph lacus</title>
<desc>Created with Sketch.</desc>
<g id="Page-3">
	<path class="st0" d="M0.6,10.8c-0.2,0-0.4,0-0.5,0L0,9.9c0.1,0,0.3,0,0.5,0c0.4,0,0.6-0.2,0.6-0.6V2.9h1.1v6.4
		C2.2,10.4,1.6,10.8,0.6,10.8z M1.6,1.8C1.3,1.8,1,1.5,1,1.1s0.3-0.7,0.7-0.7c0.4,0,0.7,0.3,0.7,0.7S2,1.8,1.6,1.8z"/>
	<path class="st0" d="M7.2,8.8c-1.5,0-2.6-1.1-2.6-3s1.1-3,2.6-3c1.5,0,2.7,1.1,2.7,3S8.8,8.8,7.2,8.8z M7.2,3.7
		c-1,0-1.5,0.9-1.5,2.1c0,1.2,0.5,2.1,1.5,2.1c1.1,0,1.6-0.9,1.6-2.1C8.8,4.6,8.3,3.7,7.2,3.7z"/>
	<path class="st0" d="M14,8.8c-0.8,0-1.6-0.3-2.1-0.5l0.2-1c0.5,0.4,1.2,0.7,2,0.7c0.7,0,1.2-0.3,1.2-0.8c0-0.5-0.3-0.7-1.4-1
		C12.5,5.8,12,5.4,12,4.4c0-0.9,0.8-1.6,2-1.6c0.7,0,1.3,0.1,1.9,0.4l-0.2,1c-0.5-0.3-1.1-0.5-1.7-0.5c-0.6,0-1,0.3-1,0.7
		c0,0.4,0.3,0.6,1.2,0.8c1.4,0.4,2.1,0.8,2.1,1.9C16.2,8.1,15.5,8.8,14,8.8z"/>
	<path class="st0" d="M23.2,5.9h-3.9c0,1.3,0.7,2,1.7,2c0.8,0,1.4-0.3,2.1-0.8l0.2,1c-0.6,0.5-1.3,0.8-2.3,0.8c-1.5,0-2.7-0.9-2.7-3
		c0-1.8,1.1-3,2.5-3c1.7,0,2.4,1.3,2.4,2.9C23.2,5.7,23.2,5.8,23.2,5.9z M20.7,3.7c-0.7,0-1.2,0.5-1.4,1.5h2.8
		C22,4.2,21.6,3.7,20.7,3.7z"/>
	<path class="st0" d="M28,8.7c-0.6,0-1.1-0.1-1.4-0.3v2.3l-1.1,0.2v-8h0.9l0.1,0.8c0.4-0.5,1-0.9,1.9-0.9c1.2,0,2.3,0.9,2.3,2.8
		C30.6,7.7,29.4,8.7,28,8.7z M28.2,3.8c-0.6,0-1.2,0.4-1.6,1v2.7C27,7.7,27.4,7.8,28,7.8c0.9,0,1.6-0.7,1.6-2.1
		C29.6,4.4,29,3.8,28.2,3.8z"/>
	<path class="st0" d="M36.6,8.7V4.8c0-0.6-0.3-1-0.9-1c-0.6,0-1.1,0.4-1.7,0.9v4H33V0.2L34.1,0v3.7c0.5-0.4,1.1-0.9,1.9-0.9
		c1.1,0,1.7,0.6,1.7,1.7v4.2H36.6z"/>
	<path class="st0" d="M44,8.7V0.2L45.1,0v8.7H44z"/>
	<path class="st0" d="M51.3,8.7l-0.1-0.8c-0.5,0.5-1.1,0.9-2,0.9c-1,0-1.7-0.6-1.7-1.6c0-1.4,1.2-2,3.6-2.2V4.7c0-0.7-0.4-1-1.1-1
		c-0.7,0-1.4,0.2-2,0.5l-0.1-0.9c0.7-0.3,1.3-0.5,2.2-0.5c1.4,0,2.1,0.6,2.1,1.8v4H51.3z M51.1,5.8C49,6,48.6,6.5,48.6,7.1
		c0,0.5,0.3,0.8,0.9,0.8c0.6,0,1.2-0.3,1.7-0.8V5.8z"/>
	<path class="st0" d="M57.2,8.8c-1.5,0-2.7-1.1-2.7-3c0-2,1.2-3,2.7-3c0.8,0,1.4,0.2,1.9,0.5l-0.2,1c-0.5-0.4-1.1-0.6-1.7-0.6
		c-0.9,0-1.6,0.7-1.6,2c0,1.4,0.7,2.1,1.7,2.1c0.6,0,1.1-0.1,1.7-0.6l0.2,1C58.5,8.6,57.9,8.8,57.2,8.8z"/>
	<path class="st0" d="M65.3,8.7l-0.1-0.8c-0.5,0.5-1.2,0.9-2,0.9c-1.1,0-1.7-0.6-1.7-1.7V2.9h1.1v3.9c0,0.6,0.3,1,0.9,1
		c0.6,0,1.1-0.4,1.7-0.9v-4h1.1v5.7H65.3z"/>
	<g class="st1">
		<path class="st0" d="M69.9,8.8c-0.8,0-1.6-0.3-2.1-0.5l0.2-1c0.5,0.4,1.2,0.7,2,0.7c0.7,0,1.2-0.3,1.2-0.8c0-0.5-0.3-0.7-1.4-1
			c-1.3-0.3-1.9-0.7-1.9-1.8c0-0.9,0.8-1.6,2-1.6c0.7,0,1.3,0.1,1.9,0.4l-0.2,1c-0.5-0.3-1.1-0.5-1.7-0.5c-0.6,0-1,0.3-1,0.7
			c0,0.4,0.3,0.6,1.2,0.8c1.4,0.4,2.1,0.8,2.1,1.9C72.1,8.1,71.4,8.8,69.9,8.8z"/>
	</g>
</g>
</svg>
