<?xml version="1.0" encoding="UTF-8" standalone="no"?>
<svg width="128px" height="100px" viewBox="0 0 128 100" version="1.1" xmlns="http://www.w3.org/2000/svg" xmlns:xlink="http://www.w3.org/1999/xlink">
    <!-- Generator: Sketch 39 (31667) - http://www.bohemiancoding.com/sketch -->
    <title>Group</title>
    <desc>Created with Sketch.</desc>
    <defs></defs>
    <g id="Page-1" stroke="none" stroke-width="1" fill="none" fill-rule="evenodd">
        <g id="Group" fill="#000000">
            <rect id="Rectangle-path" x="9.455" y="10.709" width="16.726" height="10.766"></rect>
            <rect id="Rectangle-path" x="9.455" y="26.869" width="16.726" height="10.766"></rect>
            <rect id="Rectangle-path" x="9.455" y="43.03" width="16.726" height="10.765"></rect>
            <rect id="Rectangle-path" x="40.346" y="10.709" width="16.726" height="10.766"></rect>
            <rect id="Rectangle-path" x="40.346" y="26.869" width="16.726" height="10.766"></rect>
            <rect id="Rectangle-path" x="40.346" y="43.03" width="16.726" height="10.765"></rect>
            <rect id="Rectangle-path" x="71.236" y="10.709" width="16.727" height="10.766"></rect>
            <rect id="Rectangle-path" x="102.127" y="10.709" width="16.727" height="10.766"></rect>
            <rect id="Rectangle-path" x="71.236" y="26.869" width="16.727" height="10.766"></rect>
            <path d="M118.304,0.408 L9.695,0.408 C4.349,0.408 0,4.757 0,10.104 L0,89.896 C0,95.244 4.349,99.592 9.695,99.592 L118.303,99.592 C123.651,99.592 127.999,95.243 127.999,89.896 L127.999,10.104 C128,4.757 123.651,0.408 118.304,0.408 L118.304,0.408 Z M65.212,5.256 L93.577,5.256 L93.577,94.744 L65.212,94.744 L65.212,5.256 L65.212,5.256 Z M62.789,94.744 L34.423,94.744 L34.423,5.256 L62.788,5.256 L62.788,94.744 L62.789,94.744 Z M4.848,89.896 L4.848,10.104 C4.848,7.43 7.022,5.256 9.696,5.256 L32,5.256 L32,94.744 L9.695,94.744 C7.022,94.744 4.848,92.568 4.848,89.896 L4.848,89.896 Z M123.152,89.896 C123.152,92.569 120.976,94.745 118.303,94.745 L96.001,94.745 L96.001,5.256 L118.304,5.256 C120.977,5.256 123.153,7.43 123.153,10.104 L123.153,89.896 L123.152,89.896 Z" id="Shape"></path>
        </g>
    </g>
</svg>