<?xml version="1.0" encoding="UTF-8" standalone="no"?>
<svg width="25px" height="23px" viewBox="0 0 25 23" version="1.1" xmlns="http://www.w3.org/2000/svg" xmlns:xlink="http://www.w3.org/1999/xlink">
    <!-- Generator: Sketch 39.1 (31720) - http://www.bohemiancoding.com/sketch -->
    <title>Group</title>
    <desc>Created with Sketch.</desc>
    <defs>
        <rect id="path-1" x="0" y="1.77635684e-15" width="25" height="23" rx="1"></rect>
        <mask id="mask-2" maskContentUnits="userSpaceOnUse" maskUnits="objectBoundingBox" x="0" y="0" width="25" height="23" fill="white">
            <use xlink:href="#path-1"></use>
        </mask>
    </defs>
    <g id="Page-1" stroke="none" stroke-width="1" fill="none" fill-rule="evenodd">
        <g id="Group">
            <use id="Rectangle" stroke="#000000" mask="url(#mask-2)" stroke-width="2" xlink:href="#path-1"></use>
            <g id="Group-2" transform="translate(8.000000, 7.000000)">
                <path d="M2.360457,0.9922 C1.570511,0.9922 0.959226,1.0622 0.499257,1.1426 L0.499257,8.7377 L1.649569,8.7377 L1.649569,5.7243 C1.839556,5.7643 2.05993,5.7733 2.299914,5.7733 C3.679819,5.7733 5.159092,5.1304 5.159092,3.2618 C5.159092,2.5586 4.899657,1.9754 4.469687,1.6037 C4.009717,1.1919 3.300392,0.9924 2.360457,0.9924 L2.360457,0.9922 Z" id="Path" fill="#000000"></path>
                <path d="M2.430757,1.9062 C3.360692,1.9062 3.999008,2.3782 3.999008,3.3124 C3.999008,4.2969 3.359832,4.8494 2.299906,4.8494 C2.029924,4.8494 1.819549,4.8384 1.649561,4.7884 L1.649561,1.9761 C1.79955,1.9461 2.070781,1.9061 2.430757,1.9061 L2.430757,1.9062 Z" id="Path" fill="#FFFFFF"></path>
                <path d="M7.988968,3.0819 C6.829048,3.0819 6.078943,3.8137 6.078943,4.738 C6.078943,5.381 6.50907,5.934 7.489002,6.3258 C8.148957,6.6071 8.379566,6.8395 8.379566,7.2613 C8.379566,7.6833 8.079665,7.9839 7.459708,7.9839 C6.989741,7.9839 6.48001,7.7836 6.200029,7.6128 L5.938328,8.4761 C6.308302,8.6971 6.858265,8.8471 7.438225,8.8471 C8.688139,8.8471 9.49863,8.2147 9.49863,7.1499 C9.49863,6.3462 9.018038,5.8439 8.108101,5.4724 C7.438147,5.181 7.188242,4.9908 7.188242,4.6091 C7.188242,4.2373 7.469004,3.9354 7.988968,3.9354 C8.438937,3.9354 8.819692,4.1053 9.039678,4.2458 L9.299425,3.4022 C8.999445,3.2314 8.528932,3.0819 7.988968,3.0819 L7.988968,3.0819 Z" id="Path" fill="#000000"></path>
            </g>
        </g>
    </g>
</svg>