<?xml version="1.0" encoding="UTF-8"?>
<svg width="74px" height="66px" viewBox="0 0 74 66" version="1.1" xmlns="http://www.w3.org/2000/svg" xmlns:xlink="http://www.w3.org/1999/xlink">
    <!-- Generator: Sketch 40.1 (33804) - http://www.bohemiancoding.com/sketch -->
    <title>Group 2</title>
    <desc>Created with Sketch.</desc>
    <defs></defs>
    <g id="Page-1" stroke="none" stroke-width="1" fill="none" fill-rule="evenodd">
        <g id="Group-2" fill="#000000">
            <g id="Group">
                <path d="M52.4,0.9 L1.6,0.9 C0.9,0.9 0.4,1.5 0.4,2.1 L0.4,14.5 C0.4,15.2 1,15.7 1.6,15.7 L7.9,15.7 L14.3,15.7 L20.7,15.7 L27,15.7 L33.4,15.7 L39.8,15.7 L46.2,15.7 L52.5,15.7 C53.2,15.7 53.7,15.1 53.7,14.5 L53.7,2.1 C53.6,1.4 53.1,0.9 52.4,0.9 L52.4,0.9 Z M51.1,13.3 L47.3,13.3 L47.3,9.5 C47.3,8.8 46.7,8.3 46.1,8.3 C45.4,8.3 44.9,8.9 44.9,9.5 L44.9,13.3 L41,13.3 L41,9.5 C41,8.8 40.4,8.3 39.8,8.3 C39.2,8.3 38.6,8.9 38.6,9.5 L38.6,13.3 L34.7,13.3 L34.7,9.5 C34.7,8.8 34.1,8.3 33.5,8.3 C32.8,8.3 32.3,8.9 32.3,9.5 L32.3,13.3 L28.4,13.3 L28.4,9.5 C28.4,8.8 27.8,8.3 27.2,8.3 C26.5,8.3 26,8.9 26,9.5 L26,13.3 L22.1,13.3 L22.1,9.5 C22.1,8.8 21.5,8.3 20.9,8.3 C20.2,8.3 19.7,8.9 19.7,9.5 L19.7,13.3 L15.8,13.3 L15.8,9.5 C15.8,8.8 15.2,8.3 14.6,8.3 C13.9,8.3 13.4,8.9 13.4,9.5 L13.4,13.3 L9.5,13.3 L9.5,9.5 C9.5,8.8 8.9,8.3 8.3,8.3 C7.6,8.3 7.1,8.9 7.1,9.5 L7.1,13.3 L3.3,13.3 L3.3,3.4 L51.6,3.4 L51.6,13.3 L51.1,13.3 Z" id="Shape"></path>
                <path d="M52.4,20.8 L1.6,20.8 C0.9,20.8 0.4,21.4 0.4,22 L0.4,63.8 C0.4,64.5 1,65 1.6,65 L52.4,65 C53.1,65 53.6,64.4 53.6,63.8 L53.6,22.1 C53.6,21.4 53.1,20.8 52.4,20.8 L52.4,20.8 Z M51.1,62.6 L41,62.6 L41,51.2 L51.2,51.2 L51.2,62.6 L51.1,62.6 Z M51.1,34.8 L41,34.8 L41,23.3 L51.2,23.3 L51.2,34.8 L51.1,34.8 Z M51.1,48.7 L41,48.7 L41,37.3 L51.2,37.3 L51.2,48.7 L51.1,48.7 Z M15.6,37.3 L25.8,37.3 L25.8,48.7 L15.6,48.7 L15.6,37.3 L15.6,37.3 Z M28.3,37.3 L38.5,37.3 L38.5,48.7 L28.3,48.7 L28.3,37.3 L28.3,37.3 Z M2.8,37.3 L13.1,37.3 L13.1,48.7 L2.8,48.7 L2.8,37.3 L2.8,37.3 Z M38.5,34.8 L28.3,34.8 L28.3,23.3 L38.5,23.3 L38.5,34.8 L38.5,34.8 Z M25.8,34.8 L15.6,34.8 L15.6,23.3 L25.8,23.3 L25.8,34.8 L25.8,34.8 Z M13.1,34.8 L2.8,34.8 L2.8,23.3 L13.1,23.3 L13.1,34.8 L13.1,34.8 Z M2.8,51.2 L13.1,51.2 L13.1,62.6 L2.8,62.6 L2.8,51.2 L2.8,51.2 Z M15.6,51.2 L25.8,51.2 L25.8,62.6 L15.6,62.6 L15.6,51.2 L15.6,51.2 Z M28.3,51.2 L38.5,51.2 L38.5,62.6 L28.3,62.6 L28.3,51.2 L28.3,51.2 Z" id="Shape"></path>
                <path d="M73.7,26 L73.7,25.7 C73.7,25.4 73.6,25.2 73.5,25 L67.9,13.4 L67.9,10.5 C67.9,9.8 67.3,9.3 66.7,9.3 C66,9.3 65.5,9.9 65.5,10.5 L65.5,13.4 L59.8,25.1 C59.7,25.3 59.7,25.5 59.7,25.6 L59.7,54 L59.7,59.1 C59.7,62.4 62.4,65.1 65.7,65.1 L67.8,65.1 C71.1,65.1 73.8,62.4 73.8,59.1 L73.8,54.2 L73.8,54 L73.8,53.8 L73.8,26 L73.7,26 Z M71.2,59.1 C71.2,61 69.6,62.6 67.7,62.6 L65.6,62.6 C63.7,62.6 62.1,61 62.1,59.1 L62.1,56.8 C63.4,57.3 65.1,57.6 66.7,57.6 C68.3,57.6 69.9,57.4 71.2,56.8 L71.2,59.1 L71.2,59.1 Z M66.6,16.5 L71,25.7 C70.5,26.1 69,26.7 66.6,26.7 C64,26.7 62.5,26 62.1,25.7 L66.6,16.5 L66.6,16.5 Z M66.6,29.3 C68.2,29.3 69.8,29.1 71.1,28.5 L71.1,54 C71.1,54 71.1,54 71,54.1 C70.6,54.5 69.1,55.2 66.5,55.2 C63.7,55.2 62.1,54.4 61.9,54.1 L61.9,28.5 C63.4,29 65,29.3 66.6,29.3 L66.6,29.3 Z" id="Shape"></path>
            </g>
        </g>
    </g>
</svg>