<?xml version="1.0" encoding="UTF-8" standalone="no"?>
<svg width="417px" height="58px" viewBox="0 0 417 58" version="1.1" xmlns="http://www.w3.org/2000/svg" xmlns:xlink="http://www.w3.org/1999/xlink">
    <!-- Generator: Sketch 3.8.3 (29802) - http://www.bohemiancoding.com/sketch -->
    <title>FISH Institute</title>
    <desc>Created with Sketch.</desc>
    <defs></defs>
    <g id="Page-1" stroke="none" stroke-width="1" fill="none" fill-rule="evenodd">
        <g id="Fish" transform="translate(-944.000000, -152.000000)" fill="#FFFFFF">
            <g id="Group" transform="translate(828.000000, 115.000000)">
                <path d="M116,93.3196811 L116,37.9213854 L149.630566,37.9213854 L149.630566,44.1407367 L122.91039,44.1407367 L122.91039,63.1827011 L147.442276,63.1827011 L147.442276,69.3252703 L122.91039,69.3252703 L122.91039,93.3196811 L116,93.3196811 Z M157.500733,93.3196811 L157.500733,37.9213854 L164.411123,37.9213854 L164.411123,93.3196811 L157.500733,93.3196811 Z M179.460418,78.0784314 C179.613983,79.5884872 180.074671,80.9513561 180.842496,82.167079 C181.610321,83.3828019 182.614877,84.4257485 183.856194,85.2959502 C185.097511,86.1661518 186.556357,86.8379886 188.232774,87.3114807 C189.909192,87.7849727 191.732749,88.0217152 193.7035,88.0217152 C195.571874,88.0217152 197.299455,87.7849727 198.886293,87.3114807 C200.473131,86.8379886 201.842398,86.1853471 202.994136,85.3535367 C204.145873,84.5217263 205.041656,83.5299673 205.68151,82.3782298 C206.321364,81.2264923 206.641286,79.972397 206.641286,78.6159062 C206.641286,76.2868371 205.783895,74.3673034 204.069086,72.8572476 C202.354276,71.3471918 199.641336,70.1058933 195.930181,69.133315 L188.827836,67.2905443 C186.268419,66.6506901 184.060955,65.8764782 182.205378,64.9678853 C180.349801,64.0592924 178.820573,63.0099473 177.617647,61.8198186 C176.414721,60.6296899 175.525337,59.2796178 174.949469,57.769562 C174.3736,56.2595062 174.08567,54.5575197 174.08567,52.6635514 C174.08567,50.3600764 174.565553,48.2485894 175.525334,46.3290269 C176.485116,44.4094645 177.828789,42.7586655 179.556395,41.3765805 C181.284002,39.9944956 183.344301,38.9195567 185.737356,38.1517317 C188.13041,37.3839067 190.772968,37 193.665109,37 C196.429279,37 198.969462,37.3903052 201.285734,38.1709272 C203.602006,38.9515493 205.617516,40.0392851 207.332325,41.4341671 C209.047135,42.8290492 210.397207,44.492645 211.382582,46.4250046 C212.367957,48.3573641 212.899028,50.4880465 212.975811,52.8171156 L206.065421,52.8171156 C205.911856,51.332654 205.508753,49.9953789 204.856102,48.8052501 C204.203451,47.6151214 203.326864,46.6105655 202.226315,45.7915521 C201.125766,44.9725388 199.83328,44.3390927 198.348818,43.8911948 C196.864356,43.4432969 195.226354,43.2193513 193.434763,43.2193513 C191.643171,43.2193513 189.998771,43.4432969 188.501512,43.8911948 C187.004253,44.3390927 185.718166,44.9661404 184.643211,45.7723566 C183.568256,46.5785728 182.736458,47.5383397 182.147792,48.6516859 C181.559126,49.7650321 181.264798,50.9999321 181.264798,52.3564229 C181.264798,53.4057838 181.463149,54.3527537 181.859859,55.1973612 C182.256568,56.0419687 182.883616,56.8097821 183.741021,57.5008246 C184.598425,58.1918671 185.692559,58.8253132 187.023456,59.401182 C188.354353,59.9770507 189.966761,60.5081217 191.860729,60.9944108 L197.657779,62.5300531 C200.524326,63.2466898 202.97493,64.0720893 205.009666,65.0062763 C207.044403,65.9404634 208.714397,67.0218007 210.019699,68.2503207 C211.325002,69.4788407 212.27837,70.8737018 212.879833,72.4349459 C213.481296,73.9961901 213.782023,75.7749579 213.782023,77.7713029 C213.782023,80.3051254 213.30214,82.5893704 212.342358,84.6241067 C211.382577,86.6588429 210.000513,88.3864232 208.196124,89.8068994 C206.391736,91.2273756 204.209866,92.3215098 201.650449,93.0893348 C199.091032,93.8571598 196.224529,94.2410665 193.050852,94.2410665 C190.107523,94.2410665 187.413777,93.8571598 184.969535,93.0893348 C182.525292,92.3215098 180.407406,91.2337741 178.615815,89.8260949 C176.824223,88.4184158 175.39737,86.7228277 174.335212,84.7392798 C173.273054,82.7557319 172.665201,80.5354713 172.511636,78.0784314 L179.460418,78.0784314 Z M259.160253,93.3196811 L259.160253,68.0967565 L228.754535,68.0967565 L228.754535,93.3196811 L221.844145,93.3196811 L221.844145,37.9213854 L228.754535,37.9213854 L228.754535,61.8774052 L259.160253,61.8774052 L259.160253,37.9213854 L266.070643,37.9213854 L266.070643,93.3196811 L259.160253,93.3196811 Z M293.251512,93.3196811 L293.251512,37.9213854 L296.284405,37.9213854 L296.284405,93.3196811 L293.251512,93.3196811 Z M305.766997,51.9725124 L308.569544,51.9725124 L308.569544,61.071193 L308.684717,61.071193 C309.171006,59.6123255 309.862038,58.2942457 310.757834,57.1169141 C311.65363,55.9395824 312.72217,54.928628 313.963487,54.0840205 C315.204804,53.239413 316.593267,52.5867716 318.128917,52.1260766 C319.664567,51.6653816 321.315366,51.4350376 323.081363,51.4350376 C325.359244,51.4350376 327.432341,51.7933505 329.300715,52.5099872 C331.169089,53.2266238 332.775099,54.2439767 334.118792,55.5620762 C335.462486,56.8801758 336.499034,58.4733887 337.228468,60.3417629 C337.957902,62.210137 338.322613,64.3088272 338.322613,66.6378963 L338.322613,93.3196811 L335.328111,93.3196811 L335.328111,66.9834158 C335.328111,64.9870708 335.020985,63.1955061 334.406725,61.6086678 C333.792465,60.0218295 332.915878,58.6781559 331.776938,57.5776067 C330.637997,56.4770576 329.275129,55.6324628 327.68829,55.043797 C326.101452,54.4551311 324.348278,54.1608026 322.428715,54.1608026 C320.406776,54.1608026 318.557626,54.5127171 316.881208,55.2165567 C315.20479,55.9203963 313.765139,56.9185538 312.562214,58.2110592 C311.359288,59.5035646 310.425115,61.0391915 309.759666,62.8179861 C309.094218,64.5967806 308.761499,66.5611034 308.761499,68.7110134 L308.761499,93.3196811 L305.766997,93.3196811 L305.766997,51.9725124 Z M346.269562,62.5684442 C346.269562,60.9304176 346.634273,59.4267829 347.363707,58.057495 C348.093141,56.6882071 349.097697,55.5172915 350.377405,54.5447132 C351.657113,53.5721349 353.160748,52.8107199 354.888354,52.2604453 C356.615961,51.7101707 358.477908,51.4350376 360.474253,51.4350376 C362.547381,51.4350376 364.447719,51.7293661 366.175325,52.3180319 C367.902931,52.9066977 369.406566,53.7448941 370.686275,54.8326461 C371.965983,55.9203982 372.989734,57.2320795 373.757559,58.7677295 C374.525384,60.3033795 374.986072,62.005366 375.139637,63.8737402 L372.221917,63.8737402 C372.068352,62.4404668 371.690844,61.1223871 371.089381,59.9194612 C370.487918,58.7165354 369.681714,57.6799872 368.670744,56.8097856 C367.659774,55.9395839 366.463265,55.2613487 365.08118,54.7750596 C363.699095,54.2887704 362.150671,54.0456295 360.435862,54.0456295 C358.900212,54.0456295 357.447765,54.2503797 356.078477,54.6598864 C354.709189,55.069393 353.519078,55.6452531 352.508109,56.387484 C351.497139,57.1297148 350.690935,58.0127003 350.089472,59.0364669 C349.488009,60.0602336 349.187282,61.1991569 349.187282,62.453271 C349.187282,64.5008043 349.89751,66.1068142 351.317986,67.2713487 C352.738462,68.4358833 354.920332,69.3636579 357.863661,70.0547004 L364.274968,71.6287337 C366.322501,72.1406171 368.075675,72.7164772 369.534543,73.3563313 C370.99341,73.9961855 372.183521,74.7512021 373.104911,75.6214037 C374.026301,76.4916054 374.704536,77.4833644 375.139637,78.5967106 C375.574738,79.7100569 375.792285,80.9705507 375.792285,82.3782298 C375.792285,84.0930389 375.414777,85.6542597 374.659749,87.0619388 C373.904721,88.4696179 372.848978,89.6789241 371.492487,90.6898937 C370.135996,91.7008633 368.523588,92.4814736 366.655213,93.0317482 C364.786839,93.5820228 362.739337,93.8571559 360.512644,93.8571559 C358.285952,93.8571559 356.244848,93.5436321 354.389271,92.916575 C352.533694,92.289518 350.921285,91.4257278 349.551997,90.3251787 C348.18271,89.2246295 347.094974,87.9321435 346.288758,86.4476819 C345.482541,84.9632202 345.028252,83.3636088 344.925875,81.6487997 L347.920377,81.6487997 C348.048348,83.0052905 348.45145,84.2721827 349.129696,85.4495144 C349.807941,86.626846 350.703724,87.6505973 351.81707,88.520799 C352.930416,89.3910006 354.229301,90.0692359 355.713762,90.555525 C357.198224,91.0418142 358.823429,91.2849551 360.589426,91.2849551 C362.304236,91.2849551 363.910245,91.0802048 365.407504,90.6706982 C366.904763,90.2611915 368.203647,89.6725345 369.304196,88.9047095 C370.404746,88.1368846 371.268536,87.2155084 371.895593,86.1405534 C372.52265,85.0655984 372.836174,83.8754876 372.836174,82.5701851 C372.836174,81.4952301 372.663416,80.5354633 372.317894,79.6908558 C371.972373,78.8462483 371.415708,78.0912317 370.647883,77.4257834 C369.880058,76.7603351 368.901096,76.1716781 367.710968,75.6597948 C366.520839,75.1479114 365.081189,74.6872234 363.391974,74.2777167 L356.750321,72.6652923 C353.24392,71.8206848 350.620557,70.5985817 348.880154,68.9989463 C347.139751,67.3993109 346.269562,65.2558317 346.269562,62.5684442 L346.269562,62.5684442 Z M387.923859,41.3381895 L387.923859,51.9725124 L396.523456,51.9725124 L396.523456,54.5831043 L387.923859,54.5831043 L387.923859,83.83709 C387.923859,86.3197241 388.403743,88.0920935 389.363524,89.1542514 C390.323305,90.2164093 391.839737,90.7474803 393.912864,90.7474803 L394.48873,90.7474803 C394.821454,90.7474803 395.173369,90.7410819 395.544484,90.7282848 C395.9156,90.7154877 396.254717,90.7026908 396.561847,90.6898937 C396.868977,90.6770966 397.035337,90.6706982 397.060931,90.6706982 L397.060931,93.3196811 C397.009743,93.3196811 396.817789,93.3260796 396.485065,93.3388767 C396.152341,93.3516738 395.787629,93.3644706 395.39092,93.3772677 C394.99421,93.3900648 394.610304,93.3964633 394.239188,93.3964633 L393.528954,93.3964633 C392.018898,93.3964633 390.726412,93.2237052 389.651457,92.878184 C388.576502,92.5326627 387.693516,91.9823964 387.002474,91.2273685 C386.311431,90.4723406 385.799556,89.4933784 385.466832,88.2904526 C385.134107,87.0875268 384.967748,85.6286812 384.967748,83.9138721 L384.967748,54.5831043 L378.901961,54.5831043 L378.901961,51.9725124 L384.967748,51.9725124 L384.967748,41.3381895 L387.923859,41.3381895 Z M404.201668,51.9725124 L407.19617,51.9725124 L407.19617,93.3196811 L404.201668,93.3196811 L404.201668,51.9725124 Z M405.698919,41.8372732 C405.03347,41.8372732 404.470407,41.6133276 404.009712,41.1654297 C403.549017,40.7175318 403.318673,40.160867 403.318673,39.4954187 C403.318673,38.8299704 403.549017,38.2669072 404.009712,37.8062122 C404.470407,37.3455172 405.03347,37.1151732 405.698919,37.1151732 C406.364367,37.1151732 406.933829,37.3455172 407.407321,37.8062122 C407.880813,38.2669072 408.117555,38.8299704 408.117555,39.4954187 C408.117555,40.160867 407.880813,40.7175318 407.407321,41.1654297 C406.933829,41.6133276 406.364367,41.8372732 405.698919,41.8372732 L405.698919,41.8372732 Z M421.976727,41.3381895 L421.976727,51.9725124 L430.576324,51.9725124 L430.576324,54.5831043 L421.976727,54.5831043 L421.976727,83.83709 C421.976727,86.3197241 422.456611,88.0920935 423.416392,89.1542514 C424.376173,90.2164093 425.892605,90.7474803 427.965732,90.7474803 L428.541598,90.7474803 C428.874322,90.7474803 429.226237,90.7410819 429.597352,90.7282848 C429.968467,90.7154877 430.307585,90.7026908 430.614715,90.6898937 C430.921845,90.6770966 431.088205,90.6706982 431.113799,90.6706982 L431.113799,93.3196811 C431.06261,93.3196811 430.870657,93.3260796 430.537933,93.3388767 C430.205209,93.3516738 429.840497,93.3644706 429.443788,93.3772677 C429.047078,93.3900648 428.663171,93.3964633 428.292056,93.3964633 L427.581822,93.3964633 C426.071766,93.3964633 424.77928,93.2237052 423.704325,92.878184 C422.62937,92.5326627 421.746384,91.9823964 421.055342,91.2273685 C420.364299,90.4723406 419.852424,89.4933784 419.519699,88.2904526 C419.186975,87.0875268 419.020616,85.6286812 419.020616,83.9138721 L419.020616,54.5831043 L412.954829,54.5831043 L412.954829,51.9725124 L419.020616,51.9725124 L419.020616,41.3381895 L421.976727,41.3381895 Z M470.157504,93.3196811 L467.393348,93.3196811 L467.393348,84.2977827 L467.278175,84.2977827 C466.81748,85.6798676 466.120049,86.9595568 465.185862,88.1368884 C464.251675,89.31422 463.138346,90.3251744 461.84584,91.1697819 C460.553335,92.0143894 459.126481,92.6734293 457.565237,93.1469214 C456.003993,93.6204135 454.365991,93.8571559 452.651182,93.8571559 C450.42449,93.8571559 448.389784,93.5052414 446.547004,92.8014019 C444.704224,92.0975623 443.123808,91.0930063 441.805708,89.7877039 C440.487609,88.4824014 439.463857,86.9019853 438.734424,85.0464083 C438.00499,83.1908312 437.640279,81.1113364 437.640279,78.8078615 L437.640279,51.9725124 L440.634781,51.9725124 L440.634781,78.3471688 C440.634781,80.3947021 440.935508,82.2118606 441.536971,83.7986989 C442.138434,85.3855372 442.989427,86.7228123 444.089976,87.8105644 C445.190525,88.8983165 446.521402,89.7301144 448.082646,90.3059831 C449.64389,90.8818519 451.371471,91.1697819 453.265439,91.1697819 C455.23619,91.1697819 457.072544,90.8306643 458.774556,90.1524189 C460.476568,89.4741735 461.94821,88.5016098 463.189527,87.2346986 C464.430844,85.9677873 465.409806,84.4449573 466.126443,82.6661627 C466.84308,80.8873682 467.201393,78.8974516 467.201393,76.6963533 L467.201393,51.9725124 L470.157504,51.9725124 L470.157504,93.3196811 Z M484.592542,41.3381895 L484.592542,51.9725124 L493.192139,51.9725124 L493.192139,54.5831043 L484.592542,54.5831043 L484.592542,83.83709 C484.592542,86.3197241 485.072425,88.0920935 486.032206,89.1542514 C486.991988,90.2164093 488.508419,90.7474803 490.581547,90.7474803 L491.157412,90.7474803 C491.490137,90.7474803 491.842051,90.7410819 492.213167,90.7282848 C492.584282,90.7154877 492.9234,90.7026908 493.23053,90.6898937 C493.53766,90.6770966 493.704019,90.6706982 493.729613,90.6706982 L493.729613,93.3196811 C493.678425,93.3196811 493.486472,93.3260796 493.153747,93.3388767 C492.821023,93.3516738 492.456312,93.3644706 492.059602,93.3772677 C491.662893,93.3900648 491.278986,93.3964633 490.907871,93.3964633 L490.197636,93.3964633 C488.68758,93.3964633 487.395094,93.2237052 486.320139,92.878184 C485.245184,92.5326627 484.362199,91.9823964 483.671156,91.2273685 C482.980114,90.4723406 482.468238,89.4933784 482.135514,88.2904526 C481.80279,87.0875268 481.63643,85.6286812 481.63643,83.9138721 L481.63643,54.5831043 L475.570643,54.5831043 L475.570643,51.9725124 L481.63643,51.9725124 L481.63643,41.3381895 L484.592542,41.3381895 Z M514.806304,54.1224116 C512.656394,54.1224116 510.685673,54.5191152 508.894081,55.3125344 C507.102489,56.1059535 505.554066,57.219283 504.248763,58.6525563 C502.943461,60.0858297 501.900514,61.8198084 501.119892,63.8545446 C500.33927,65.8892808 499.897777,68.1351352 499.7954,70.5921752 L529.471688,70.5921752 C529.471688,68.1351352 529.113375,65.8956793 528.396738,63.8737402 C527.680101,61.851801 526.675546,60.1178223 525.38304,58.6717519 C524.090535,57.2256815 522.548509,56.1059535 520.756918,55.3125344 C518.965326,54.5191152 516.981808,54.1224116 514.806304,54.1224116 L514.806304,54.1224116 Z M532.005498,81.7639729 C531.672773,83.5043762 531.032929,85.1167845 530.085945,86.6012461 C529.138961,88.0857077 527.942451,89.3653969 526.496381,90.4403518 C525.05031,91.5153068 523.367519,92.3535032 521.447957,92.9549661 C519.528394,93.556429 517.429704,93.8571559 515.151823,93.8571559 C512.336465,93.8571559 509.796282,93.3772725 507.531198,92.4174913 C505.266115,91.4577101 503.333784,90.0692474 501.734149,88.2520616 C500.134513,86.4348758 498.899613,84.2210136 498.029412,81.6104086 C497.15921,78.9998037 496.724116,76.0309249 496.724116,72.7036833 C496.724116,69.5044126 497.15921,66.5931198 498.029412,63.9697178 C498.899613,61.3463158 500.121717,59.1068598 501.695758,57.2512828 C503.269799,55.3957057 505.170137,53.9624539 507.39683,52.9514843 C509.623522,51.9405148 512.106119,51.4350376 514.844695,51.4350376 C517.506488,51.4350376 519.925101,51.9085225 522.100605,52.8555067 C524.276109,53.8024908 526.131658,55.1525629 527.667308,56.9057632 C529.202958,58.6589636 530.393069,60.7640522 531.237676,63.2210922 C532.082284,65.6781321 532.504581,68.4038699 532.504581,71.3983874 L532.504581,73.125985 L499.757009,73.125985 L499.757009,73.2795492 C499.757009,76.0949075 500.128119,78.6094966 500.87035,80.823392 C501.612581,83.0372874 502.655527,84.9120319 503.999221,86.4476819 C505.342915,87.9833318 506.961722,89.1542474 508.85569,89.9604636 C510.749658,90.7666799 512.861145,91.1697819 515.190214,91.1697819 C517.084183,91.1697819 518.811763,90.9330394 520.373007,90.4595474 C521.934251,89.9860553 523.303519,89.3334138 524.48085,88.5016034 C525.658182,87.669793 526.624347,86.678034 527.379375,85.5262965 C528.134403,84.374559 528.665474,83.1204637 528.972604,81.7639729 L532.005498,81.7639729 Z" id="FISH-Institute"></path>
            </g>
        </g>
    </g>
</svg>