<?xml version="1.0" encoding="UTF-8" standalone="no"?>
<svg width="532px" height="132px" viewBox="0 0 532 132" version="1.1" xmlns="http://www.w3.org/2000/svg" xmlns:xlink="http://www.w3.org/1999/xlink">
    <!-- Generator: Sketch 3.8.3 (29802) - http://www.bohemiancoding.com/sketch -->
    <title>Group</title>
    <desc>Created with Sketch.</desc>
    <defs></defs>
    <g id="Page-1" stroke="none" stroke-width="1" fill="none" fill-rule="evenodd">
        <g id="Fish" transform="translate(-829.000000, -115.000000)">
            <g id="Group" transform="translate(829.000000, 115.000000)">
                <g id="Page-1" fill="#FEFEFE">
                    <path d="M78.8455877,41.1018488 C79.5741625,19.1849127 62.4871199,0.757873359 40.7550147,0.0231019822 C19.0229096,-0.711669395 0.750209408,16.520698 0.0226950542,38.4376341 C-0.30182301,48.197152 2.92744989,57.7021203 9.11556396,65.2017082 L9.15586359,65.241281 C20.5044512,77.7676891 20.8936608,90.4705707 20.8968423,90.5978455 L23.2734599,90.552925 C23.2639153,89.9999748 22.8990976,76.8553748 10.9110185,63.6241423 L10.9110185,63.6252118 C5.11741656,56.5855245 2.09388388,47.6720097 2.39825213,38.5178493 C3.08334582,17.92286 20.2531088,1.72901224 40.675476,2.41886309 C61.0967827,3.10978349 77.1540638,20.4266443 76.4689701,41.0216335 C76.1646018,50.1832807 72.5503614,58.8839578 66.2922533,65.5182909 L66.3113426,65.536473 C53.5109078,77.9174242 52.2743455,90.981809 52.2287433,91.5315506 L54.5979373,91.7369016 C54.6085424,91.6106963 55.8408627,78.9612916 67.9954428,67.2295489 L68.0145321,67.1707244 C74.6756366,60.1096463 78.5221301,50.8517409 78.8455877,41.1018488" id="Fill-1"></path>
                    <path d="M56.9022276,47.030288 C56.5342284,46.9586291 47.8220849,45.3158214 42.9999162,49.8634894 C40.6243591,52.1041678 39.1025178,54.5544752 38.1703238,56.4432762 C37.3664522,54.4956507 36.0100516,51.9480155 33.7893299,49.5522544 C29.276832,44.6890732 20.4777262,45.7404273 20.1065454,45.7864174 L18.1361056,46.0366888 L19.2846451,47.6698706 C22.513918,52.2613896 30.8538201,65.4209631 30.6650482,71.1023395 C30.4624895,77.1783747 27.9352786,87.215972 27.4251701,89.1860577 L30.0075279,88.6908625 C30.8570017,85.2982936 32.8539543,76.8018979 33.0406052,71.1825547 C33.249527,64.916142 25.5088167,52.6646047 22.4386213,48.06346 C25.045371,48.0559732 29.5366585,48.4773705 32.0522038,51.1897143 C35.8986973,55.3384453 36.8786146,60.1246198 36.8881593,60.1727489 L39.2032669,60.248686 C39.2159931,60.2016264 40.4843709,55.5191969 44.623567,51.6153897 C47.313037,49.0784498 51.8191718,48.9597313 54.424861,49.1447611 C51.0555999,53.52879 42.5184416,65.2295161 42.3105804,71.4959288 C42.1536239,76.2222093 43.1589936,82.3752511 43.8642371,86.0287868 L46.2047972,85.5785121 C45.520764,82.0233737 44.5387257,76.0296928 44.6861375,71.576144 C44.8749094,65.8979763 54.0706484,53.3287867 57.596866,48.965079 L58.851457,47.4121124 L56.9022276,47.030288 Z" id="Fill-3"></path>
                    <path d="M23.5341349,96.1504497 C23.2212825,96.9547409 22.9253984,97.828552 22.6507246,98.7654658 L54.6634772,92.7247252 L54.7504395,90.1097092 L23.5341349,96.1504497 Z" id="Fill-5"></path>
                    <path d="M52.9660144,112.057555 L22.8685547,117.30256 C23.1623178,118.102573 23.4815333,118.860875 23.815596,119.571047 L52.396517,114.590217 C52.6234675,113.780578 52.8143605,112.934575 52.9660144,112.057555" id="Fill-7"></path>
                    <path d="M53.3331652,100.676727 L21.3384414,106.252219 C21.310868,106.660782 21.2758709,107.060789 21.2610237,107.482186 C21.2482975,107.893957 21.2461765,108.299312 21.2525396,108.700388 L53.3967962,103.099226 C53.386191,102.210442 53.3639202,101.402942 53.3331652,100.676727" id="Fill-9"></path>
                    <path d="M36.3987309,131.109631 C28.970873,130.85829 25.3258776,124.837871 25.1742237,124.582252 L27.2146576,123.350146 C27.340859,123.560845 30.3749969,128.50745 36.4782696,128.712801 C42.6621416,128.92243 46.4842433,124.004702 46.5224219,123.955503 L48.4058993,125.417559 C48.2213694,125.660344 43.7884102,131.359903 36.3987309,131.109631" id="Fill-11"></path>
                </g>
                <path d="M115,93.3196811 L115,37.9213854 L148.630566,37.9213854 L148.630566,44.1407367 L121.91039,44.1407367 L121.91039,63.1827011 L146.442276,63.1827011 L146.442276,69.3252703 L121.91039,69.3252703 L121.91039,93.3196811 L115,93.3196811 Z M156.500733,93.3196811 L156.500733,37.9213854 L163.411123,37.9213854 L163.411123,93.3196811 L156.500733,93.3196811 Z M178.460418,78.0784314 C178.613983,79.5884872 179.074671,80.9513561 179.842496,82.167079 C180.610321,83.3828019 181.614877,84.4257485 182.856194,85.2959502 C184.097511,86.1661518 185.556357,86.8379886 187.232774,87.3114807 C188.909192,87.7849727 190.732749,88.0217152 192.7035,88.0217152 C194.571874,88.0217152 196.299455,87.7849727 197.886293,87.3114807 C199.473131,86.8379886 200.842398,86.1853471 201.994136,85.3535367 C203.145873,84.5217263 204.041656,83.5299673 204.68151,82.3782298 C205.321364,81.2264923 205.641286,79.972397 205.641286,78.6159062 C205.641286,76.2868371 204.783895,74.3673034 203.069086,72.8572476 C201.354276,71.3471918 198.641336,70.1058933 194.930181,69.133315 L187.827836,67.2905443 C185.268419,66.6506901 183.060955,65.8764782 181.205378,64.9678853 C179.349801,64.0592924 177.820573,63.0099473 176.617647,61.8198186 C175.414721,60.6296899 174.525337,59.2796178 173.949469,57.769562 C173.3736,56.2595062 173.08567,54.5575197 173.08567,52.6635514 C173.08567,50.3600764 173.565553,48.2485894 174.525334,46.3290269 C175.485116,44.4094645 176.828789,42.7586655 178.556395,41.3765805 C180.284002,39.9944956 182.344301,38.9195567 184.737356,38.1517317 C187.13041,37.3839067 189.772968,37 192.665109,37 C195.429279,37 197.969462,37.3903052 200.285734,38.1709272 C202.602006,38.9515493 204.617516,40.0392851 206.332325,41.4341671 C208.047135,42.8290492 209.397207,44.492645 210.382582,46.4250046 C211.367957,48.3573641 211.899028,50.4880465 211.975811,52.8171156 L205.065421,52.8171156 C204.911856,51.332654 204.508753,49.9953789 203.856102,48.8052501 C203.203451,47.6151214 202.326864,46.6105655 201.226315,45.7915521 C200.125766,44.9725388 198.83328,44.3390927 197.348818,43.8911948 C195.864356,43.4432969 194.226354,43.2193513 192.434763,43.2193513 C190.643171,43.2193513 188.998771,43.4432969 187.501512,43.8911948 C186.004253,44.3390927 184.718166,44.9661404 183.643211,45.7723566 C182.568256,46.5785728 181.736458,47.5383397 181.147792,48.6516859 C180.559126,49.7650321 180.264798,50.9999321 180.264798,52.3564229 C180.264798,53.4057838 180.463149,54.3527537 180.859859,55.1973612 C181.256568,56.0419687 181.883616,56.8097821 182.741021,57.5008246 C183.598425,58.1918671 184.692559,58.8253132 186.023456,59.401182 C187.354353,59.9770507 188.966761,60.5081217 190.860729,60.9944108 L196.657779,62.5300531 C199.524326,63.2466898 201.97493,64.0720893 204.009666,65.0062763 C206.044403,65.9404634 207.714397,67.0218007 209.019699,68.2503207 C210.325002,69.4788407 211.27837,70.8737018 211.879833,72.4349459 C212.481296,73.9961901 212.782023,75.7749579 212.782023,77.7713029 C212.782023,80.3051254 212.30214,82.5893704 211.342358,84.6241067 C210.382577,86.6588429 209.000513,88.3864232 207.196124,89.8068994 C205.391736,91.2273756 203.209866,92.3215098 200.650449,93.0893348 C198.091032,93.8571598 195.224529,94.2410665 192.050852,94.2410665 C189.107523,94.2410665 186.413777,93.8571598 183.969535,93.0893348 C181.525292,92.3215098 179.407406,91.2337741 177.615815,89.8260949 C175.824223,88.4184158 174.39737,86.7228277 173.335212,84.7392798 C172.273054,82.7557319 171.665201,80.5354713 171.511636,78.0784314 L178.460418,78.0784314 Z M258.160253,93.3196811 L258.160253,68.0967565 L227.754535,68.0967565 L227.754535,93.3196811 L220.844145,93.3196811 L220.844145,37.9213854 L227.754535,37.9213854 L227.754535,61.8774052 L258.160253,61.8774052 L258.160253,37.9213854 L265.070643,37.9213854 L265.070643,93.3196811 L258.160253,93.3196811 Z M292.251512,93.3196811 L292.251512,37.9213854 L295.284405,37.9213854 L295.284405,93.3196811 L292.251512,93.3196811 Z M304.766997,51.9725124 L307.569544,51.9725124 L307.569544,61.071193 L307.684717,61.071193 C308.171006,59.6123255 308.862038,58.2942457 309.757834,57.1169141 C310.65363,55.9395824 311.72217,54.928628 312.963487,54.0840205 C314.204804,53.239413 315.593267,52.5867716 317.128917,52.1260766 C318.664567,51.6653816 320.315366,51.4350376 322.081363,51.4350376 C324.359244,51.4350376 326.432341,51.7933505 328.300715,52.5099872 C330.169089,53.2266238 331.775099,54.2439767 333.118792,55.5620762 C334.462486,56.8801758 335.499034,58.4733887 336.228468,60.3417629 C336.957902,62.210137 337.322613,64.3088272 337.322613,66.6378963 L337.322613,93.3196811 L334.328111,93.3196811 L334.328111,66.9834158 C334.328111,64.9870708 334.020985,63.1955061 333.406725,61.6086678 C332.792465,60.0218295 331.915878,58.6781559 330.776938,57.5776067 C329.637997,56.4770576 328.275129,55.6324628 326.68829,55.043797 C325.101452,54.4551311 323.348278,54.1608026 321.428715,54.1608026 C319.406776,54.1608026 317.557626,54.5127171 315.881208,55.2165567 C314.20479,55.9203963 312.765139,56.9185538 311.562214,58.2110592 C310.359288,59.5035646 309.425115,61.0391915 308.759666,62.8179861 C308.094218,64.5967806 307.761499,66.5611034 307.761499,68.7110134 L307.761499,93.3196811 L304.766997,93.3196811 L304.766997,51.9725124 Z M345.269562,62.5684442 C345.269562,60.9304176 345.634273,59.4267829 346.363707,58.057495 C347.093141,56.6882071 348.097697,55.5172915 349.377405,54.5447132 C350.657113,53.5721349 352.160748,52.8107199 353.888354,52.2604453 C355.615961,51.7101707 357.477908,51.4350376 359.474253,51.4350376 C361.547381,51.4350376 363.447719,51.7293661 365.175325,52.3180319 C366.902931,52.9066977 368.406566,53.7448941 369.686275,54.8326461 C370.965983,55.9203982 371.989734,57.2320795 372.757559,58.7677295 C373.525384,60.3033795 373.986072,62.005366 374.139637,63.8737402 L371.221917,63.8737402 C371.068352,62.4404668 370.690844,61.1223871 370.089381,59.9194612 C369.487918,58.7165354 368.681714,57.6799872 367.670744,56.8097856 C366.659774,55.9395839 365.463265,55.2613487 364.08118,54.7750596 C362.699095,54.2887704 361.150671,54.0456295 359.435862,54.0456295 C357.900212,54.0456295 356.447765,54.2503797 355.078477,54.6598864 C353.709189,55.069393 352.519078,55.6452531 351.508109,56.387484 C350.497139,57.1297148 349.690935,58.0127003 349.089472,59.0364669 C348.488009,60.0602336 348.187282,61.1991569 348.187282,62.453271 C348.187282,64.5008043 348.89751,66.1068142 350.317986,67.2713487 C351.738462,68.4358833 353.920332,69.3636579 356.863661,70.0547004 L363.274968,71.6287337 C365.322501,72.1406171 367.075675,72.7164772 368.534543,73.3563313 C369.99341,73.9961855 371.183521,74.7512021 372.104911,75.6214037 C373.026301,76.4916054 373.704536,77.4833644 374.139637,78.5967106 C374.574738,79.7100569 374.792285,80.9705507 374.792285,82.3782298 C374.792285,84.0930389 374.414777,85.6542597 373.659749,87.0619388 C372.904721,88.4696179 371.848978,89.6789241 370.492487,90.6898937 C369.135996,91.7008633 367.523588,92.4814736 365.655213,93.0317482 C363.786839,93.5820228 361.739337,93.8571559 359.512644,93.8571559 C357.285952,93.8571559 355.244848,93.5436321 353.389271,92.916575 C351.533694,92.289518 349.921285,91.4257278 348.551997,90.3251787 C347.18271,89.2246295 346.094974,87.9321435 345.288758,86.4476819 C344.482541,84.9632202 344.028252,83.3636088 343.925875,81.6487997 L346.920377,81.6487997 C347.048348,83.0052905 347.45145,84.2721827 348.129696,85.4495144 C348.807941,86.626846 349.703724,87.6505973 350.81707,88.520799 C351.930416,89.3910006 353.229301,90.0692359 354.713762,90.555525 C356.198224,91.0418142 357.823429,91.2849551 359.589426,91.2849551 C361.304236,91.2849551 362.910245,91.0802048 364.407504,90.6706982 C365.904763,90.2611915 367.203647,89.6725345 368.304196,88.9047095 C369.404746,88.1368846 370.268536,87.2155084 370.895593,86.1405534 C371.52265,85.0655984 371.836174,83.8754876 371.836174,82.5701851 C371.836174,81.4952301 371.663416,80.5354633 371.317894,79.6908558 C370.972373,78.8462483 370.415708,78.0912317 369.647883,77.4257834 C368.880058,76.7603351 367.901096,76.1716781 366.710968,75.6597948 C365.520839,75.1479114 364.081189,74.6872234 362.391974,74.2777167 L355.750321,72.6652923 C352.24392,71.8206848 349.620557,70.5985817 347.880154,68.9989463 C346.139751,67.3993109 345.269562,65.2558317 345.269562,62.5684442 L345.269562,62.5684442 Z M386.923859,41.3381895 L386.923859,51.9725124 L395.523456,51.9725124 L395.523456,54.5831043 L386.923859,54.5831043 L386.923859,83.83709 C386.923859,86.3197241 387.403743,88.0920935 388.363524,89.1542514 C389.323305,90.2164093 390.839737,90.7474803 392.912864,90.7474803 L393.48873,90.7474803 C393.821454,90.7474803 394.173369,90.7410819 394.544484,90.7282848 C394.9156,90.7154877 395.254717,90.7026908 395.561847,90.6898937 C395.868977,90.6770966 396.035337,90.6706982 396.060931,90.6706982 L396.060931,93.3196811 C396.009743,93.3196811 395.817789,93.3260796 395.485065,93.3388767 C395.152341,93.3516738 394.787629,93.3644706 394.39092,93.3772677 C393.99421,93.3900648 393.610304,93.3964633 393.239188,93.3964633 L392.528954,93.3964633 C391.018898,93.3964633 389.726412,93.2237052 388.651457,92.878184 C387.576502,92.5326627 386.693516,91.9823964 386.002474,91.2273685 C385.311431,90.4723406 384.799556,89.4933784 384.466832,88.2904526 C384.134107,87.0875268 383.967748,85.6286812 383.967748,83.9138721 L383.967748,54.5831043 L377.901961,54.5831043 L377.901961,51.9725124 L383.967748,51.9725124 L383.967748,41.3381895 L386.923859,41.3381895 Z M403.201668,51.9725124 L406.19617,51.9725124 L406.19617,93.3196811 L403.201668,93.3196811 L403.201668,51.9725124 Z M404.698919,41.8372732 C404.03347,41.8372732 403.470407,41.6133276 403.009712,41.1654297 C402.549017,40.7175318 402.318673,40.160867 402.318673,39.4954187 C402.318673,38.8299704 402.549017,38.2669072 403.009712,37.8062122 C403.470407,37.3455172 404.03347,37.1151732 404.698919,37.1151732 C405.364367,37.1151732 405.933829,37.3455172 406.407321,37.8062122 C406.880813,38.2669072 407.117555,38.8299704 407.117555,39.4954187 C407.117555,40.160867 406.880813,40.7175318 406.407321,41.1654297 C405.933829,41.6133276 405.364367,41.8372732 404.698919,41.8372732 L404.698919,41.8372732 Z M420.976727,41.3381895 L420.976727,51.9725124 L429.576324,51.9725124 L429.576324,54.5831043 L420.976727,54.5831043 L420.976727,83.83709 C420.976727,86.3197241 421.456611,88.0920935 422.416392,89.1542514 C423.376173,90.2164093 424.892605,90.7474803 426.965732,90.7474803 L427.541598,90.7474803 C427.874322,90.7474803 428.226237,90.7410819 428.597352,90.7282848 C428.968467,90.7154877 429.307585,90.7026908 429.614715,90.6898937 C429.921845,90.6770966 430.088205,90.6706982 430.113799,90.6706982 L430.113799,93.3196811 C430.06261,93.3196811 429.870657,93.3260796 429.537933,93.3388767 C429.205209,93.3516738 428.840497,93.3644706 428.443788,93.3772677 C428.047078,93.3900648 427.663171,93.3964633 427.292056,93.3964633 L426.581822,93.3964633 C425.071766,93.3964633 423.77928,93.2237052 422.704325,92.878184 C421.62937,92.5326627 420.746384,91.9823964 420.055342,91.2273685 C419.364299,90.4723406 418.852424,89.4933784 418.519699,88.2904526 C418.186975,87.0875268 418.020616,85.6286812 418.020616,83.9138721 L418.020616,54.5831043 L411.954829,54.5831043 L411.954829,51.9725124 L418.020616,51.9725124 L418.020616,41.3381895 L420.976727,41.3381895 Z M469.157504,93.3196811 L466.393348,93.3196811 L466.393348,84.2977827 L466.278175,84.2977827 C465.81748,85.6798676 465.120049,86.9595568 464.185862,88.1368884 C463.251675,89.31422 462.138346,90.3251744 460.84584,91.1697819 C459.553335,92.0143894 458.126481,92.6734293 456.565237,93.1469214 C455.003993,93.6204135 453.365991,93.8571559 451.651182,93.8571559 C449.42449,93.8571559 447.389784,93.5052414 445.547004,92.8014019 C443.704224,92.0975623 442.123808,91.0930063 440.805708,89.7877039 C439.487609,88.4824014 438.463857,86.9019853 437.734424,85.0464083 C437.00499,83.1908312 436.640279,81.1113364 436.640279,78.8078615 L436.640279,51.9725124 L439.634781,51.9725124 L439.634781,78.3471688 C439.634781,80.3947021 439.935508,82.2118606 440.536971,83.7986989 C441.138434,85.3855372 441.989427,86.7228123 443.089976,87.8105644 C444.190525,88.8983165 445.521402,89.7301144 447.082646,90.3059831 C448.64389,90.8818519 450.371471,91.1697819 452.265439,91.1697819 C454.23619,91.1697819 456.072544,90.8306643 457.774556,90.1524189 C459.476568,89.4741735 460.94821,88.5016098 462.189527,87.2346986 C463.430844,85.9677873 464.409806,84.4449573 465.126443,82.6661627 C465.84308,80.8873682 466.201393,78.8974516 466.201393,76.6963533 L466.201393,51.9725124 L469.157504,51.9725124 L469.157504,93.3196811 Z M483.592542,41.3381895 L483.592542,51.9725124 L492.192139,51.9725124 L492.192139,54.5831043 L483.592542,54.5831043 L483.592542,83.83709 C483.592542,86.3197241 484.072425,88.0920935 485.032206,89.1542514 C485.991988,90.2164093 487.508419,90.7474803 489.581547,90.7474803 L490.157412,90.7474803 C490.490137,90.7474803 490.842051,90.7410819 491.213167,90.7282848 C491.584282,90.7154877 491.9234,90.7026908 492.23053,90.6898937 C492.53766,90.6770966 492.704019,90.6706982 492.729613,90.6706982 L492.729613,93.3196811 C492.678425,93.3196811 492.486472,93.3260796 492.153747,93.3388767 C491.821023,93.3516738 491.456312,93.3644706 491.059602,93.3772677 C490.662893,93.3900648 490.278986,93.3964633 489.907871,93.3964633 L489.197636,93.3964633 C487.68758,93.3964633 486.395094,93.2237052 485.320139,92.878184 C484.245184,92.5326627 483.362199,91.9823964 482.671156,91.2273685 C481.980114,90.4723406 481.468238,89.4933784 481.135514,88.2904526 C480.80279,87.0875268 480.63643,85.6286812 480.63643,83.9138721 L480.63643,54.5831043 L474.570643,54.5831043 L474.570643,51.9725124 L480.63643,51.9725124 L480.63643,41.3381895 L483.592542,41.3381895 Z M513.806304,54.1224116 C511.656394,54.1224116 509.685673,54.5191152 507.894081,55.3125344 C506.102489,56.1059535 504.554066,57.219283 503.248763,58.6525563 C501.943461,60.0858297 500.900514,61.8198084 500.119892,63.8545446 C499.33927,65.8892808 498.897777,68.1351352 498.7954,70.5921752 L528.471688,70.5921752 C528.471688,68.1351352 528.113375,65.8956793 527.396738,63.8737402 C526.680101,61.851801 525.675546,60.1178223 524.38304,58.6717519 C523.090535,57.2256815 521.548509,56.1059535 519.756918,55.3125344 C517.965326,54.5191152 515.981808,54.1224116 513.806304,54.1224116 L513.806304,54.1224116 Z M531.005498,81.7639729 C530.672773,83.5043762 530.032929,85.1167845 529.085945,86.6012461 C528.138961,88.0857077 526.942451,89.3653969 525.496381,90.4403518 C524.05031,91.5153068 522.367519,92.3535032 520.447957,92.9549661 C518.528394,93.556429 516.429704,93.8571559 514.151823,93.8571559 C511.336465,93.8571559 508.796282,93.3772725 506.531198,92.4174913 C504.266115,91.4577101 502.333784,90.0692474 500.734149,88.2520616 C499.134513,86.4348758 497.899613,84.2210136 497.029412,81.6104086 C496.15921,78.9998037 495.724116,76.0309249 495.724116,72.7036833 C495.724116,69.5044126 496.15921,66.5931198 497.029412,63.9697178 C497.899613,61.3463158 499.121717,59.1068598 500.695758,57.2512828 C502.269799,55.3957057 504.170137,53.9624539 506.39683,52.9514843 C508.623522,51.9405148 511.106119,51.4350376 513.844695,51.4350376 C516.506488,51.4350376 518.925101,51.9085225 521.100605,52.8555067 C523.276109,53.8024908 525.131658,55.1525629 526.667308,56.9057632 C528.202958,58.6589636 529.393069,60.7640522 530.237676,63.2210922 C531.082284,65.6781321 531.504581,68.4038699 531.504581,71.3983874 L531.504581,73.125985 L498.757009,73.125985 L498.757009,73.2795492 C498.757009,76.0949075 499.128119,78.6094966 499.87035,80.823392 C500.612581,83.0372874 501.655527,84.9120319 502.999221,86.4476819 C504.342915,87.9833318 505.961722,89.1542474 507.85569,89.9604636 C509.749658,90.7666799 511.861145,91.1697819 514.190214,91.1697819 C516.084183,91.1697819 517.811763,90.9330394 519.373007,90.4595474 C520.934251,89.9860553 522.303519,89.3334138 523.48085,88.5016034 C524.658182,87.669793 525.624347,86.678034 526.379375,85.5262965 C527.134403,84.374559 527.665474,83.1204637 527.972604,81.7639729 L531.005498,81.7639729 Z" id="FISH-Institute" fill="#FFFFFF"></path>
            </g>
        </g>
    </g>
</svg>