<?xml version="1.0" encoding="UTF-8"?>
<svg width="323px" height="78px" viewBox="0 0 323 78" version="1.1" xmlns="http://www.w3.org/2000/svg" xmlns:xlink="http://www.w3.org/1999/xlink">
    <!-- Generator: Sketch 43.2 (39069) - http://www.bohemiancoding.com/sketch -->
    <title>58823fbaf2f7dc65748e01db_mighty_lockup_web</title>
    <desc>Created with Sketch.</desc>
    <defs></defs>
    <g id="UI-Relationship-5/3" stroke="none" stroke-width="1" fill="none" fill-rule="evenodd">
        <g id="58823fbaf2f7dc65748e01db_mighty_lockup_web" fill-rule="nonzero" fill="#FFFFFF">
            <path d="M49.0703147,13.4497667 C49.3271863,13.1178309 49.7191113,12.9239034 50.1337253,12.9239034 L53.2431956,12.9239034 C53.9913916,12.9239034 54.5977815,13.5425985 54.5977815,14.3056374 L54.5977815,37.5480239 C54.8419583,37.6334181 54.8384468,37.6323162 55.0828935,37.7174349 L83.0100529,1.03867664 C83.2666543,0.70150709 83.6615507,0.504549386 84.0799461,0.504549386 L87.1896865,0.504549386 C87.9376125,0.504549386 88.5442725,1.12296903 88.5442725,1.88573251 L88.5442725,29.9041366 C88.7387494,30.0068852 88.7757541,30.0261677 88.9702311,30.1289163 L103.805581,19.4524314 C104.020856,19.6678454 103.971156,19.6179861 104.186161,19.8334 L82.0503631,53.1175993 C81.7980834,53.4963641 81.3783374,53.7233474 80.9291496,53.7233474 L77.7591753,53.7233474 C77.0109793,53.7233474 76.4043194,53.1049278 76.4043194,52.3421643 L76.4043194,28.3400446 C76.1666252,28.2518957 76.1639241,28.2507938 75.9259601,28.1626449 L47.8742814,62.3148353 C47.6168695,62.6280393 47.2368293,62.8090201 46.8359907,62.8090201 L43.8342931,62.8090201 C43.0858269,62.8090201 42.4791669,62.1900494 42.4797071,61.4264596 L42.4953733,41.1086885 C42.2855002,41.0097965 42.2587596,40.9974006 42.0486165,40.8985085 L0.388683783,77.2475348 C0.15261038,77.0158685 0.236343509,77.0979572 0,76.8662909 L49.0703147,13.4497667 Z" id="Fill-1"></path>
            <path d="M144.218956,51.5621372 L135.533184,27.241102 L135.533184,51.1715047 C135.533184,51.8234127 134.994521,52.3517272 134.330649,52.3517272 L126.227233,52.3517272 C125.562708,52.3517272 125.023393,51.8234127 125.023393,51.1715047 L125.023393,11.2911292 C125.023393,10.6392212 125.562708,10.1102664 126.227233,10.1102664 L137.904995,10.1102664 C138.415616,10.1102664 138.869501,10.4259743 139.039708,10.8979352 L148.213929,36.3915082 L157.320979,10.8998563 C157.490534,10.4272551 157.945724,10.1102664 158.456344,10.1102664 L170.06172,10.1102664 C170.725592,10.1102664 171.264907,10.6392212 171.264907,11.2911292 L171.264907,51.1715047 C171.264907,51.8234127 170.725592,52.3517272 170.06172,52.3517272 L161.88983,52.3517272 C161.224653,52.3517272 160.68599,51.8234127 160.68599,51.1715047 L160.68599,27.241102 L152.06804,51.5595757 C151.900442,52.0340981 151.443948,52.3517272 150.932675,52.3517272 L145.354321,52.3517272 C144.8437,52.3517272 144.387859,52.035379 144.218956,51.5621372" id="Fill-3"></path>
            <path d="M186.667379,53.3891446 L178.072906,53.3891446 C177.408382,53.3891446 176.87037,52.8608302 176.87037,52.2082818 L176.87037,23.6114218 C176.87037,22.9588736 177.408382,22.4299188 178.072906,22.4299188 L186.667379,22.4299188 C187.331904,22.4299188 187.870566,22.9588736 187.870566,23.6114218 L187.870566,52.2082818 C187.870566,52.8608302 187.331904,53.3891446 186.667379,53.3891446 M182.403728,19.8158829 C179.041325,19.8158829 176.169327,17.5450913 176.169327,14.0370835 C176.169327,10.4592741 179.041325,8.189123 182.403728,8.189123 C185.766783,8.189123 188.640085,10.4592741 188.640085,14.0370835 C188.640085,17.5450913 185.766783,19.8158829 182.403728,19.8158829" id="Fill-5"></path>
            <path d="M230.412742,10.1102664 L239.007868,10.1102664 C239.671739,10.1102664 240.210402,10.6392212 240.210402,11.2917696 L240.210402,24.0769789 C241.910515,22.2064257 244.865334,20.7899026 248.370554,20.7092146 C254.69821,20.5632077 259.827243,25.7566987 259.827243,31.9722379 L259.827243,51.1715047 C259.827243,51.8240531 259.288582,52.3523675 258.624709,52.3523675 L250.100665,52.3523675 C249.436793,52.3523675 248.898131,51.8240531 248.898131,51.1715047 L248.898131,34.6714445 C248.898131,32.1259295 247.566472,30.2681837 244.763601,30.2681837 C242.590692,30.2681837 240.771238,31.5066809 240.210402,33.6397905 L240.210402,51.1715047 C240.210402,51.8240531 239.671739,52.3523675 239.007868,52.3523675 L230.412742,52.3523675 C229.748217,52.3523675 229.209555,51.8240531 229.209555,51.1715047 L229.209555,11.2917696 C229.209555,10.6392212 229.748217,10.1102664 230.412742,10.1102664" id="Fill-7"></path>
            <path d="M297.064218,61.9267059 L301.05267,51.8394222 L289.9077,23.2412816 C289.605763,22.4677012 290.188118,21.6371268 291.031328,21.6371268 L299.837092,21.6371268 C300.354234,21.6371268 300.812684,21.9618001 300.977674,22.442086 L306.727539,39.2495292 L312.341108,22.4497704 C312.502837,21.9656423 312.963896,21.6371268 313.483648,21.6371268 L321.796398,21.6371268 C322.638956,21.6371268 323.220007,22.4657799 322.920026,23.2387201 L307.582487,62.7745704 C307.405107,63.2330833 306.957742,63.5353434 306.458861,63.5353434 L298.185236,63.5353434 C297.339419,63.5353434 296.757063,62.7009266 297.064218,61.9267059" id="Fill-9"></path>
            <path d="M268.790411,30.0022247 L263.995922,30.0022247 C263.383569,30.0022247 263.076415,29.2747518 263.509431,28.8495388 L278.477861,14.1515109 C278.910878,13.7262978 279.65105,14.0279174 279.65105,14.6285949 L279.65105,21.6087493 L285.205927,21.6087493 C285.77524,21.6087493 286.236952,22.0614986 286.236952,22.6211918 L286.236952,28.9891417 C286.236952,29.5481945 285.77524,30.0022247 285.205927,30.0022247 L279.65105,30.0022247 L279.65105,40.3219667 C279.65105,42.7297998 280.841194,43.7614538 283.014757,43.7614538 C283.880139,43.7614538 284.821168,43.6160872 285.648073,43.3778655 C286.083699,43.25107 286.517369,43.5802259 286.517369,44.0265716 L286.517369,51.3941566 C286.517369,51.9199095 286.167172,52.3790628 285.654595,52.5295523 C284.319677,52.9195444 282.393274,53.1872237 280.422525,53.1872237 C272.994066,53.1872237 268.790411,49.7470962 268.790411,41.9037081 L268.790411,30.0022247 Z" id="Fill-11"></path>
            <path d="M212.762581,40.7633902 C211.92198,42.2074496 210.171,43.377426 207.99809,43.377426 C204.355271,43.377426 202.182361,40.6948694 202.182361,36.7731752 C202.182361,32.9200021 204.355271,30.1682842 207.99809,30.1682842 C210.171,30.1682842 211.92198,31.4061411 212.762581,32.78232 L212.762581,40.7633902 Z M201.505445,54.4316851 L196.054258,59.7839906 C195.555375,60.2745225 195.580808,61.088447 196.127297,61.5264676 C198.876694,63.7287384 202.702111,64.9115223 207.227269,64.9115223 C216.826027,64.9115223 223.623221,59.6828105 223.623221,48.8123406 L223.623221,23.5063994 C223.623221,22.853851 223.083905,22.3248961 222.420034,22.3248961 L213.965768,22.3248961 C213.301245,22.3248961 212.762581,22.853851 212.762581,23.5063994 L212.762581,24.6642084 C211.361797,23.0126655 208.770218,21.6371268 205.264998,21.6371268 C196.439669,21.6371268 191.323679,28.3105386 191.323679,36.7731752 C191.323679,45.3043329 196.439669,51.9777445 205.264998,51.9777445 C208.770218,51.9777445 211.361797,50.5324043 212.762581,48.9500226 L212.762581,51.1516528 C212.762581,55.2110289 210.660754,56.9996134 207.227269,56.9996134 C204.951973,56.9996134 203.394025,56.1959351 202.594509,54.5860169 C202.393651,54.1812961 201.829556,54.1134157 201.505445,54.4316851 L201.505445,54.4316851 Z" id="Fill-13"></path>
        </g>
    </g>
</svg>