<?xml version="1.0" encoding="UTF-8" standalone="no"?>
<svg width="222px" height="227px" viewBox="0 0 222 227" version="1.1" xmlns="http://www.w3.org/2000/svg" xmlns:xlink="http://www.w3.org/1999/xlink">
    <!-- Generator: Sketch 3.8.3 (29802) - http://www.bohemiancoding.com/sketch -->
    <title>PIRATE HEAD OUTLINE</title>
    <desc>Created with Sketch.</desc>
    <defs>
        <polygon id="path-1" points="221.929 0.869405395 221.929 226.94 0 226.94 0 113.904703 0 0.869405395 221.929 0.869405395"></polygon>
    </defs>
    <g id="Page-1" stroke="none" stroke-width="1" fill="none" fill-rule="evenodd">
        <g id="SHU" transform="translate(-139.000000, -137.000000)">
            <g id="PIRATE-HEAD-OUTLINE" transform="translate(139.000000, 137.000000)">
                <g id="Group-3">
                    <mask id="mask-2" fill="white">
                        <use xlink:href="#path-1"></use>
                    </mask>
                    <g id="Clip-2"></g>
                    <path d="M59.56,113.384 C54.946,113.202 49.62,113.351 44.646,114.552 C39.065,115.899 34.263,118.557 30.763,121.012 C29.073,122.197 27.748,123.292 26.847,124.093 C26.44,124.454 25.505,125.413 24.659,126.282 C23.709,127.258 22.866,128.14 22.835,128.172 L9.268,142.383 C9.268,142.383 5.766,114.876 5.7,110.748 C5.675,109.221 5.691,107.412 5.816,105.478 L0,106.536 L0.542,92.343 C0.566,91.718 0.959,82.502 5.342,71.916 C9.786,61.181 18.783,48.102 36.329,42.253 C48.987,38.034 61.723,39.295 70.66,41.225 C72.208,41.56 73.674,41.921 75.043,42.292 C82.793,26.408 102.849,-0.791 147.796,0.949 C196.763,2.844 213.535,44.512 217.521,71.687 C220.149,89.597 217.61,105.485 215.8,113.22 C216.962,115.713 218.318,119.259 218.951,123.373 C219.746,128.538 218.903,133.161 217.92,136.44 L218.101,136.774 C219.671,139.711 222.531,145.737 221.817,152.302 C220.729,162.32 214.796,180.387 189.386,182.865 C186.769,183.121 184.576,183.26 182.537,183.236 C179.541,188.824 175.205,195.714 170.218,201.083 C166.255,205.352 160.706,210.43 156.374,214.266 C151.965,218.17 141.397,227 141.397,227 C141.397,227 125.306,214.62 120.663,210.712 C116.147,206.911 109.957,201.462 105.293,196.272 C102.377,193.028 99.309,189.04 96.671,185.414 C96.357,185.448 96.038,185.481 95.714,185.511 C91.387,185.914 84.347,186.123 78.039,183.521 C61.309,176.622 53.424,158.825 60.906,143.892 C59.529,141.162 58.45,137.915 58.213,134.241 C57.816,128.087 59.239,123.042 61.099,119.061 L60.944,118.558 C60.403,116.775 59.946,115.031 59.56,113.384" id="Fill-1" fill="#FFFFFF" mask="url(#mask-2)"></path>
                </g>
                <path d="M210.484,151.071 C209.711,158.176 206.189,169.772 188.279,171.519 C182.234,172.109 179.957,171.917 175.864,170.671 C174.21,175.125 168.482,186.198 161.865,193.326 C154.751,200.986 141.103,212.39 141.103,212.39 C141.103,212.39 132.533,205.801 128.004,201.99 C123.561,198.25 117.881,193.223 113.772,188.652 C110.173,184.647 106.246,179.285 103.331,175.117 L101.839,172.962 C101.312,173.116 89.693,175.995 82.385,172.982 C70.608,168.125 66.963,156.802 71.269,148.669 C72.325,146.673 73.489,145.042 74.69,143.72 C72.301,141.266 69.858,137.662 69.59,133.507 C69.55,132.886 69.538,132.283 69.553,131.697 C69.675,126.751 71.635,123.036 73.618,120.066 C72.993,118.592 72.366,116.941 71.854,115.252 C70.054,109.312 69.322,104.146 69.462,102.452 C68.027,102.976 54.847,100.362 41.971,103.47 C27.207,107.033 17.534,117.215 17.534,117.215 C17.534,117.215 16.034,105.589 18.552,98.888 C19.834,95.476 23.134,90.742 23.134,90.742 L11.934,92.778 C11.934,92.778 13.11,62.01 39.935,53.069 C59.789,46.45 81.681,56.633 81.681,56.633 C81.681,56.633 92.907,10.233 147.355,12.341 C187.547,13.897 201.6,47.294 205.902,73.433 C209.211,93.542 203.611,114.67 203.611,114.67 C203.611,114.67 206.789,119.298 207.683,125.106 C208.049,127.48 207.824,129.755 207.387,131.695 C206.604,135.171 205.138,137.58 205.138,137.58 C205.138,137.58 211.114,145.267 210.484,151.071 L210.484,151.071 Z M215.231,138.309 C214.948,137.78 214.663,137.275 214.384,136.8 L214.52,136.401 C214.957,135.088 215.391,133.494 215.677,131.698 C216.047,129.371 216.171,126.705 215.734,123.868 C215.126,119.91 213.772,116.506 212.651,114.177 L212.362,113.588 C214.105,106.627 216.987,90.461 214.302,72.16 C210.378,45.416 194.163,6.001 147.67,4.201 C102.052,2.435 83.298,31.532 76.82,46.19 C74.816,45.578 72.508,44.954 69.973,44.406 C61.316,42.537 49.237,41.382 37.359,45.341 C20.994,50.796 12.566,62.974 8.349,73.161 C4.177,83.24 3.811,92.021 3.794,92.468 L3.407,102.608 L9.526,101.496 C8.985,104.846 8.914,108.179 8.954,110.696 C9.003,113.706 10.447,125.674 11.194,131.695 C11.457,133.811 11.634,135.192 11.634,135.192 L20.481,125.925 C20.512,125.892 21.366,124.999 22.327,124.012 C23.238,123.076 24.247,122.048 24.685,121.659 C25.654,120.799 27.078,119.621 28.894,118.347 C32.612,115.739 37.787,112.859 43.882,111.388 C49.275,110.086 54.94,109.945 59.688,110.131 C60.575,110.166 61.419,110.212 62.207,110.261 C62.653,112.495 63.27,115.011 64.059,117.615 C64.231,118.183 64.414,118.748 64.605,119.306 C62.917,122.574 61.492,126.678 61.405,131.695 C61.392,132.453 61.409,133.231 61.461,134.031 C61.707,137.847 63.014,141.174 64.606,143.88 C64.425,144.2 64.246,144.525 64.07,144.858 C57.158,157.914 63.797,174.128 79.28,180.512 C84.831,182.801 91.213,182.662 95.412,182.27 C96.388,182.179 97.319,182.066 98.182,181.944 C100.983,185.863 104.445,190.459 107.714,194.097 C112.219,199.109 118.264,204.438 122.76,208.222 C127.375,212.106 141.313,222.829 141.313,222.829 C141.313,222.829 149.832,215.712 154.216,211.829 C158.539,208.001 163.986,203.012 167.833,198.869 C173.103,193.194 177.693,185.616 180.61,179.897 C183.119,180.089 185.725,179.952 189.07,179.626 C212.325,177.358 217.581,161.156 218.581,151.951 C219.181,146.43 216.755,141.159 215.231,138.309 L215.231,138.309 Z" id="Fill-4" fill="#A0A8AA"></path>
                <path d="M117.955,86.16 C126.126,85.382 129.918,86.287 129.918,86.287 L133.991,95.451 C130.936,94.178 128.881,93.104 119.609,91.633 C111.59,90.36 99.499,91.506 99.499,91.506 C99.499,91.506 107.263,87.178 117.955,86.16 L117.955,86.16 Z M202.261,148.13 C202.191,145.936 201.027,144.247 199.682,143.021 L196.644,143.023 C197.164,144.425 197.611,146.167 197.374,147.634 C195.897,156.793 182.466,153.153 167.989,146.653 C164.023,144.872 160.47,143.738 157.453,143.021 L157.451,143.021 C150.669,141.409 146.591,141.907 146.591,141.907 L149.967,135.947 L135.785,136.049 L139.035,83.427 C139.035,83.427 144.682,97.361 150.262,107.358 C156.894,119.242 163.853,126.858 163.853,126.858 C163.853,126.858 173.573,120.27 178.625,114.449 C182.58,109.892 188.083,101.942 188.083,101.942 L198.125,99.972 C198.125,99.972 181.986,86.163 147.355,78.015 C137.149,75.613 123.538,73.688 113.627,73.305 C118.59,72.542 125.979,72.213 135.773,71.905 C156.841,71.244 174.59,74.441 197.247,81.069 C197.247,81.069 197.229,61.395 183.501,41.359 C164.664,13.868 118.938,13.278 97.972,41.868 C91.977,50.044 88.837,58.889 87.289,66.887 C83.191,66.658 77.025,65.303 67.747,61.776 C31.858,48.134 22.625,83.836 22.625,83.836 C22.625,83.836 36.387,69.598 56.88,76.968 C31.758,78.636 26.961,102.58 26.961,102.58 C26.961,102.58 39.99,90.294 62.076,93.079 C73.782,94.555 81.275,89.023 85.953,82.623 C86.074,88.92 86.938,92.997 87.026,93.033 L78.172,93.124 C78.172,93.124 76.695,102.631 79.65,112.381 C81.044,116.984 83.717,121.543 83.717,121.543 L84.041,121.959 C79.807,123.027 76.673,126.861 76.673,131.427 C76.673,136.819 81.045,141.191 86.438,141.191 C89.419,141.191 92.088,139.855 93.879,137.749 C92.806,138.483 91.508,138.912 90.111,138.912 C86.419,138.912 83.427,135.919 83.427,132.228 C83.427,129.536 85.018,127.216 87.311,126.157 L87.627,126.562 C87.627,126.562 89.399,128.63 91.172,130.108 C92.945,131.585 95.013,133.062 95.013,133.062 C95.013,133.062 95.808,138.088 97.336,142.798 C97.36,142.872 97.384,142.946 97.408,143.021 C98.9,147.585 100.772,152.216 100.772,152.216 C100.772,152.216 97.172,154.694 94.281,155.907 C90.335,157.561 86.787,158.683 84.354,156.289 C80.408,152.407 84.081,146.358 84.081,146.358 C84.081,146.358 80.51,146.668 78.468,151.971 C77.099,155.525 77.362,162.624 86.008,165.325 C94.154,167.871 105.058,162.607 105.058,162.607 C105.058,162.607 107.966,167.126 111.687,172.314 C114.244,175.876 117.184,179.753 119.831,182.698 C127.251,190.954 141.103,201.607 141.103,201.607 C141.103,201.607 150.993,194.002 156.171,188.016 C160.062,183.517 165.034,175.607 165.034,175.607 C165.034,175.607 155.5,184.544 145.239,178.561 C142.735,177.101 141.523,174.812 141.334,172.314 C141.041,168.435 143.216,164.057 146.845,161.507 C146.845,161.507 134.194,165.169 133.481,159.471 C133.1,156.416 136.155,154.634 140.355,154.507 C145.379,154.355 150.571,154.596 157.057,155.812 C171.239,158.471 175.375,164.085 187.489,162.903 C199.602,161.721 202.465,154.507 202.261,148.13 L202.261,148.13 Z" id="Fill-5" fill="#005795"></path>
                <path d="M196.644,143.021 L199.682,143.019 C197.759,141.263 195.466,140.448 195.466,140.448 C195.466,140.448 196.095,141.547 196.644,143.021" id="Fill-6" fill="#005795"></path>
                <polyline id="Fill-7" fill="#FFFFFF" points="192.33 192.971 190.861 188.594 190.861 192.965 189.576 192.959 189.576 185.888 191.142 185.895 192.915 191.14 194.69 185.91 196.254 185.917 196.254 192.989 194.97 192.983 194.97 188.61 193.5 192.976 192.33 192.971"></polyline>
                <polyline id="Fill-8" fill="#FFFFFF" points="185.518 187.036 183.324 187.026 183.324 185.862 188.96 185.85 188.96 187.014 186.784 187.038 186.784 192.947 185.518 192.941 185.518 187.036"></polyline>
            </g>
        </g>
    </g>
</svg>