<?xml version="1.0" encoding="utf-8"?>
<!-- Generator: Adobe Illustrator 19.2.1, SVG Export Plug-In . SVG Version: 6.00 Build 0)  -->
<!DOCTYPE svg PUBLIC "-//W3C//DTD SVG 1.1//EN" "http://www.w3.org/Graphics/SVG/1.1/DTD/svg11.dtd">
<svg version="1.1" id="Layer_1" xmlns="http://www.w3.org/2000/svg" xmlns:xlink="http://www.w3.org/1999/xlink" x="0px" y="0px"
	 viewBox="0 0 257.5 63.5" style="enable-background:new 0 0 257.5 63.5;" xml:space="preserve">
<style type="text/css">
	.st0{fill-rule:evenodd;clip-rule:evenodd;fill:#FFFFFF;}
</style>
<g>
	<g>
		<g>
			<path class="st0" d="M31.8,0C14.2,0,0,14.2,0,31.8c0,16.9,13.2,30.7,29.8,31.7l0-37c0-1.1-0.9-2-2-2H10.4c-1.2,0-2.2,1-2.2,2.2v0
				c0,1.2,1,2.2,2.2,2.2h15v30.9C12.6,56.9,3,45.5,3,31.8C3,15.9,15.9,3,31.8,3c15.9,0,28.7,12.9,28.7,28.7c0,13.7-9.6,25.2-22.4,28
				V28.9h15c1.2,0,2.2-1,2.2-2.2v0c0-1.2-1-2.2-2.2-2.2H35.6c-1.1,0-2,0.9-2,2l0,37c16.6-1,29.8-14.8,29.8-31.7
				C63.5,14.2,49.3,0,31.8,0z"/>
		</g>
		<path class="st0" d="M100.3,15h-27c-1.1,0-1.9,0.9-1.9,1.9c0,1.1,0.9,1.9,1.9,1.9h11.6V47c0,1.1,0.9,1.9,1.9,1.9
			c1.1,0,1.9-0.9,1.9-1.9V18.9h11.6c1.1,0,1.9-0.9,1.9-1.9C102.2,15.9,101.3,15,100.3,15z"/>
		<path class="st0" d="M215.8,14.7c-1.1,0-1.9,0.9-1.9,1.9V47c0,1.1,0.9,1.9,1.9,1.9c1.1,0,1.9-0.9,1.9-1.9V16.6
			C217.7,15.5,216.9,14.7,215.8,14.7z"/>
		<path class="st0" d="M131.6,14.7c-1.1,0-1.9,0.9-1.9,1.9v14h-19.1v-14c0-1.1-0.9-1.9-1.9-1.9c-1.1,0-1.9,0.9-1.9,1.9V47
			c0,1.1,0.9,1.9,1.9,1.9c1.1,0,1.9-0.9,1.9-1.9V34.1h19.1V47c0,1.1,0.9,1.9,1.9,1.9c1.1,0,1.9-0.9,1.9-1.9V16.6
			C133.5,15.5,132.7,14.7,131.6,14.7z"/>
		<path class="st0" d="M209.1,16.9c0-1-0.8-1.7-1.7-1.7h-25.6c-1,0-1.7,0.8-1.7,1.7c0,1,0.8,1.7,1.7,1.7h21.7l-23.7,26.9
			c0,0,0,0,0,0l-0.1,0.1c0,0,0,0,0,0c-0.2,0.3-0.4,0.7-0.4,1.1c0,0.9,0.6,1.6,1.4,1.7c0.1,0,0.2,0,0.4,0h26.4c1,0,1.7-0.8,1.7-1.7
			c0-1-0.8-1.7-1.7-1.7h-22.7l23.6-26.7C208.8,18.1,209.1,17.6,209.1,16.9z"/>
		<path class="st0" d="M171.3,14.7c-1.1,0-1.9,0.9-1.9,1.9v16.4c0,1.9,0,2.8-0.7,4.5c-1.8,4.5-6.1,7.7-11.1,7.7
			c-3.8,0-7.3-1.9-9.5-4.7c-1.4-2.3-1.9-4.8-1.8-7.4V16.6c0-1.1-0.9-1.9-1.9-1.9c-1.1,0-1.9,0.9-1.9,1.9v17.7c0,2.1,0.4,4.1,1.2,6
			c2.6,5.1,7.9,8.6,13.9,8.6c6.5,0,12.2-4.1,14.5-9.9c0.8-2.1,1.2-4.2,1.1-6.3V16.6C173.2,15.5,172.3,14.7,171.3,14.7z"/>
		<path class="st0" d="M240.5,14.2c-9.4,0-17.1,7.8-17.1,17.5c0,9.7,7.6,17.5,17.1,17.5c9.4,0,17.1-7.8,17.1-17.5
			C257.5,22.1,249.9,14.2,240.5,14.2z M240.5,45.4c-7.4,0-13.4-6.1-13.4-13.7s6-13.7,13.4-13.7c7.4,0,13.4,6.1,13.4,13.7
			S247.9,45.4,240.5,45.4z"/>
	</g>
</g>
</svg>
