<?xml version="1.0" encoding="UTF-8" standalone="no"?>
<svg width="556px" height="228px" viewBox="0 0 556 228" version="1.1" xmlns="http://www.w3.org/2000/svg" xmlns:xlink="http://www.w3.org/1999/xlink">
    <!-- Generator: Sketch 3.8.3 (29802) - http://www.bohemiancoding.com/sketch -->
    <title>applications</title>
    <desc>Created with Sketch.</desc>
    <defs></defs>
    <g id="Page-1" stroke="none" stroke-width="1" fill="none" fill-rule="evenodd">
        <g id="applications" fill="#E8E8E8">
            <g id="Page-1">
                <g id="Group">
                    <path d="M213.119343,18.82425 L248.290672,59.6125 L124.145336,228 L0,59.6125 L35.1741935,18.82615 L79.6602422,0 L168.627564,0 L213.119343,18.82615 L213.119343,18.82425 L213.119343,18.82425 Z M86.901735,163.77525 L53.7959939,103.32675 L27.7254734,83.6646 L86.901735,163.77525 L86.901735,163.77525 L86.901735,163.77525 Z M183.94519,104.58075 L63.934848,104.58075 L123.935244,213.98275 L183.94519,104.58075 L183.94519,104.58075 L183.94519,104.58075 Z M160.978302,163.77525 L194.077358,103.32675 L220.147879,83.6646 L160.978302,163.77525 L160.978302,163.77525 L160.978302,163.77525 Z M55.655309,94.3331 L10.3422614,60.0286 L37.8614625,28.025 L76.9672433,47.0592 L55.655309,94.3331 L55.655309,94.3331 L55.655309,94.3331 Z M84.6231905,50.19705 L63.9319831,96.2112504 L183.942324,96.2112504 L163.248252,50.19705 L84.6231905,50.19705 L84.6231905,50.19705 L84.6231905,50.19705 Z M192.209449,94.3331 L237.522496,60.0286 L210.00998,28.025 L170.904199,47.0592 L192.209449,94.3331 L192.209449,94.3331 L192.209449,94.3331 Z M163.245387,41.8304 L84.6203262,41.8304 L46.5487712,23.00425 L81.102238,8.3619 L166.759655,8.36218504 L201.319806,23.004535 L163.245387,41.830685 L163.245387,41.8304 L163.245387,41.8304 Z" id="Shape"></path>
                    <path d="M555.508772,109.560549 L555.508772,118.489773 C555.423856,118.974183 555.316593,119.449664 555.260727,119.931842 C554.798156,123.816055 554.498715,127.724822 553.859608,131.580014 C551.772454,144.109947 547.260715,155.755887 540.556795,166.52453 C530.375775,182.873939 516.612626,195.341367 499.316512,203.855381 C489.260632,208.804404 478.65056,211.951955 467.504176,213.233298 C465.046071,213.516801 462.590202,213.771284 460.132098,214.041393 L364.74872,214.041393 C364.268272,213.952101 363.790059,213.809233 363.305142,213.780213 C353.687251,213.175258 344.433607,210.985366 335.613482,207.130174 C316.41122,198.736704 302.093881,185.133032 292.7218,166.408451 C288.56537,158.097576 285.919556,149.302291 284.800001,140.065009 C284.52961,137.834936 284.265922,135.607094 284,133.379253 L284,124.715674 C284.09162,124.235728 284.232403,123.755782 284.261453,123.273604 C284.759778,114.949336 286.469277,106.866156 289.479338,99.097732 C297.579908,78.19442 311.700599,62.6910555 331.767667,52.6568406 C342.178855,47.4488711 353.276078,44.7120641 364.882798,44.1048769 C370.565488,43.8102125 376.243709,44.1271999 381.892879,44.8839516 C382.404611,44.9531531 383.142043,44.7254579 383.49735,44.3615921 C391.620267,36.0730404 400.869442,29.3404059 411.298508,24.2373547 C421.414724,19.2883326 432.060549,16.0983675 443.267269,14.8214886 C445.904144,14.5201273 448.547724,14.2723413 451.189068,14 L459.320924,14 C459.852768,14.0825953 460.386847,14.1763522 460.918691,14.2388567 C464.947747,14.707641 468.99915,15.0023053 472.990217,15.6697648 C485.441632,17.7569708 497.03271,22.2215825 507.758982,28.8537632 C524.205933,39.0241487 536.74003,52.790779 545.303171,70.1224017 C550.266306,80.174475 553.421618,90.775696 554.699832,101.923831 C554.990335,104.470892 555.23838,107.017953 555.508772,109.560549 M403.698497,51.7817767 C403.861626,51.9960781 403.901849,52.0965319 403.971123,52.1300165 C409.573366,54.8735204 414.871697,58.1081316 419.924219,61.7668809 C420.241538,61.9968084 421.028131,61.9008192 421.412489,61.6597302 C435.240442,52.9068589 450.230408,49.8865491 466.333224,52.739436 C482.112018,55.5342829 494.95226,63.409858 504.76233,75.988902 C515.870726,90.224316 520.105369,106.321474 517.039443,124.231264 C514.983574,136.234372 510.170159,147.003016 501.989142,156.023764 C487.061746,172.469161 468.368981,179.270997 446.36448,176.391322 C432.818092,174.618872 421.12422,168.781392 411.445994,159.010589 C399.02363,146.476192 386.520818,134.024389 374.0627,121.523477 C372.402362,119.858176 370.554315,118.518793 368.16325,118.226361 C363.986708,117.715163 360.196758,119.797904 358.393404,123.545946 C356.784463,126.892172 356.992284,130.664769 360.482792,134.093591 C374.37108,147.712889 388.136463,161.457196 402.009109,175.089888 C404.382297,177.422648 406.934256,179.614772 409.626997,181.565807 C419.76109,188.916791 431.186805,192.98182 443.560007,194.6181 C453.271753,195.899443 462.907521,195.62487 472.469546,193.477391 C490.708678,189.385575 505.81708,180.085789 517.716539,165.736527 C527.542251,153.878518 533.484159,140.252523 535.55567,124.954531 C536.746734,116.16371 536.514331,107.417536 534.81377,98.727169 C532.053989,84.596673 526.069623,71.9528925 516.480783,61.190946 C498.185784,40.6693582 475.168991,31.5079749 447.779007,33.5527671 C437.242679,34.3385387 427.276185,37.4302823 417.8974,42.3346583 C412.849348,44.9732439 408.114146,48.0828459 403.698497,51.7817767 M396.996811,195.042238 C396.500721,194.582383 396.185637,194.287719 395.870553,193.990822 C390.192332,188.63552 384.482827,183.313703 378.871645,177.8892 C377.78561,176.840016 376.786726,176.328818 375.249294,176.364535 C369.566604,176.502938 363.879445,176.527493 358.279437,175.264008 C330.435821,168.97337 314.2682,138.732322 324.529667,112.123237 C332.623534,91.141794 355.03027,78.364075 377.126391,82.304095 C387.030316,84.069849 395.723066,88.257655 402.858272,95.608638 C411.559961,104.582507 420.520868,113.299662 429.316411,122.182007 C431.318648,124.204476 433.618093,125.126418 436.391281,124.7313 C439.975644,124.220102 442.82928,122.51462 444.125371,119.003203 C445.394646,115.547594 444.78012,112.275033 442.161122,109.625286 C432.929824,100.283086 423.91752,90.706494 414.313037,81.761645 C395.685077,64.4054664 373.718565,59.2443753 349.423558,66.6243784 C316.746416,76.542513 297.622366,110.250332 305.088299,143.511689 C311.892778,173.817474 338.42466,195.086884 369.470514,195.113672 C378.138683,195.122601 386.809087,195.118136 395.477256,195.113672 C395.906307,195.113672 396.335358,195.075722 396.996811,195.042238" id="Shape"></path>
                </g>
            </g>
        </g>
    </g>
</svg>