<?xml version="1.0" encoding="UTF-8" standalone="no"?>
<svg width="267px" height="197px" viewBox="0 0 267 197" version="1.1" xmlns="http://www.w3.org/2000/svg" xmlns:xlink="http://www.w3.org/1999/xlink">
    <!-- Generator: Sketch 3.8.3 (29802) - http://www.bohemiancoding.com/sketch -->
    <title>Group 17</title>
    <desc>Created with Sketch.</desc>
    <defs>
        <rect id="path-1" x="0" y="22" width="267" height="175"></rect>
        <mask id="mask-2" maskContentUnits="userSpaceOnUse" maskUnits="objectBoundingBox" x="0" y="0" width="267" height="175" fill="white">
            <use xlink:href="#path-1"></use>
        </mask>
    </defs>
    <g id="Symbols" stroke="none" stroke-width="1" fill="none" fill-rule="evenodd">
        <g id="Group-17">
            <rect id="Rectangle-78" fill="#CACACA" x="0" y="0" width="267" height="22"></rect>
            <use id="Rectangle-78-Copy" stroke="#CACACA" mask="url(#mask-2)" stroke-width="2" fill="#F8F8F8" xlink:href="#path-1"></use>
            <circle id="Oval-30" fill="#F8F8F8" cx="6.5" cy="11.5" r="2.5"></circle>
            <circle id="Oval-30" fill="#F8F8F8" cx="14.5" cy="11.5" r="2.5"></circle>
            <circle id="Oval-30" fill="#F8F8F8" cx="22.5" cy="11.5" r="2.5"></circle>
            <g id="Group-16" transform="translate(24.000000, 43.000000)" fill="#E8E8E8">
                <rect id="Rectangle-80" x="0" y="0" width="220" height="13"></rect>
                <rect id="Rectangle-80-Copy" x="0" y="21" width="109" height="5"></rect>
                <rect id="Rectangle-80-Copy-6" x="114" y="21" width="106" height="41"></rect>
                <rect id="Rectangle-80-Copy-7" x="0" y="73" width="220" height="29"></rect>
                <rect id="Rectangle-80-Copy-2" x="0" y="30" width="109" height="5"></rect>
                <rect id="Rectangle-80-Copy-3" x="0" y="39" width="109" height="5"></rect>
                <rect id="Rectangle-80-Copy-4" x="0" y="48" width="109" height="5"></rect>
                <rect id="Rectangle-80-Copy-8" x="0" y="110" width="199" height="5"></rect>
                <rect id="Rectangle-80-Copy-5" x="0" y="57" width="109" height="5"></rect>
                <rect id="Rectangle-80-Copy-9" x="0" y="119" width="159" height="5"></rect>
                <rect id="Rectangle-80-Copy-10" x="0" y="128" width="109" height="5"></rect>
            </g>
        </g>
    </g>
</svg>