<?xml version="1.0" encoding="UTF-8"?>
<svg width="46px" height="62px" viewBox="0 0 46 62" version="1.1" xmlns="http://www.w3.org/2000/svg" xmlns:xlink="http://www.w3.org/1999/xlink">
    <!-- Generator: Sketch 43.2 (39069) - http://www.bohemiancoding.com/sketch -->
    <title>code</title>
    <desc>Created with Sketch.</desc>
    <defs></defs>
    <g id="Page-1" stroke="none" stroke-width="1" fill="none" fill-rule="evenodd">
        <g id="code" fill-rule="nonzero" fill="#5F6A6C">
            <path d="M0,60.6205404 L0,1.37777778 C0,0 1.37777778,0 1.37777778,0 L33.0666667,0 L45.4666667,12.4 L45.4666667,60.6222222 C45.4666667,62 44.0888889,62 44.0888889,62 L1.37777778,62 C1.37777778,62 0,62 0,60.6205404 Z M2.06666667,58.6366413 C2.06666667,59.9333333 3.32106134,59.9333333 3.32106134,59.9333333 L42.1456053,59.9333333 C42.1456053,59.9333333 43.4,59.9333333 43.4,58.6382222 L43.4,14.4666667 L32.3777778,14.4666667 C32.3777778,14.4666667 31,14.4666667 31,13.0888889 L31,2.06666667 L3.32106134,2.06666667 C3.32106134,2.06666667 2.06666667,2.06666667 2.06666667,3.36177778 L2.06666667,58.6366413 Z M17.9977268,44.8386681 L5.48975149,37.9973219 L5.48975149,34.2087503 L17.9977268,27.3987146 L17.9977268,31.8604621 L9.27325844,36.0560703 L17.9977268,40.4082311 L17.9977268,44.8386681 L17.9977268,44.8386681 Z M19.1551812,47.844477 L23.6729872,24.1111111 L26.2990397,24.1111111 L21.7314507,47.844477 L19.1551812,47.844477 L19.1551812,47.844477 Z M27.4564942,44.8543234 L27.4564942,40.4238863 L36.1934082,36.1030361 L27.4564942,31.8291516 L27.4564942,27.4300251 L39.9769152,34.2400608 L39.9769152,37.9973219 L27.4564942,44.8543234 L27.4564942,44.8543234 Z" id="Shape"></path>
        </g>
    </g>
</svg>