<?xml version="1.0" encoding="UTF-8"?>
<svg width="62px" height="62px" viewBox="0 0 62 62" version="1.1" xmlns="http://www.w3.org/2000/svg" xmlns:xlink="http://www.w3.org/1999/xlink">
    <!-- Generator: Sketch 43.2 (39069) - http://www.bohemiancoding.com/sketch -->
    <title>design</title>
    <desc>Created with Sketch.</desc>
    <defs></defs>
    <g id="Page-1" stroke="none" stroke-width="1" fill="none" fill-rule="evenodd">
        <g id="design" fill-rule="nonzero" fill="#5F6A6C">
            <path d="M57.8666667,0 L4.13333333,0 C1.86,0 0,1.86 0,4.13333333 L0,10.8844444 L0,13.64 L0,57.8666667 C0,60.14 1.86,62 4.13333333,62 L57.8666667,62 C60.14,62 62,60.14 62,57.8666667 L62,13.64 L62,10.8844444 L62,4.13333333 C62,1.86 60.14,0 57.8666667,0 L57.8666667,0 Z M59.2444444,57.8666667 C59.2444444,58.6244444 58.6244444,59.2444444 57.8666667,59.2444444 L4.13333333,59.2444444 C3.37555556,59.2444444 2.75555556,58.6244444 2.75555556,57.8666667 L2.75555556,13.64 L59.2444444,13.64 L59.2444444,57.8666667 L59.2444444,57.8666667 Z M2.75555556,10.8844444 L2.75555556,4.13333333 C2.75555556,3.37555556 3.37555556,2.75555556 4.13333333,2.75555556 L57.8666667,2.75555556 C58.6244444,2.75555556 59.2444444,3.37555556 59.2444444,4.13333333 L59.2444444,10.8844444 L2.75555556,10.8844444 L2.75555556,10.8844444 Z" id="Shape"></path>
            <circle id="Oval" cx="55.8" cy="7.02666667" r="1.37777778"></circle>
            <circle id="Oval" cx="49.9444444" cy="7.02666667" r="1.37777778"></circle>
            <circle id="Oval" cx="44.0888889" cy="7.02666667" r="1.37777778"></circle>
            <path d="M8.81777778,32.0333333 L53.2511111,32.0333333 C54.0088889,32.0333333 54.6288889,31.4133333 54.6288889,30.6555556 L54.6288889,20.3222222 C54.6288889,19.5644444 54.0088889,18.9444444 53.2511111,18.9444444 L8.81777778,18.9444444 C8.06,18.9444444 7.44,19.5644444 7.44,20.3222222 L7.44,30.6555556 C7.44,31.4133333 7.99111111,32.0333333 8.81777778,32.0333333 L8.81777778,32.0333333 Z M10.1955556,21.7 L51.8733333,21.7 L51.8733333,29.2777778 L10.1955556,29.2777778 L10.1955556,21.7 L10.1955556,21.7 Z" id="Shape"></path>
            <path d="M8.81777778,52.0111111 L25.6955556,52.0111111 C26.4533333,52.0111111 27.0733333,51.3911111 27.0733333,50.6333333 L27.0733333,40.3 C27.0733333,39.5422222 26.4533333,38.9222222 25.6955556,38.9222222 L8.81777778,38.9222222 C8.06,38.9222222 7.44,39.5422222 7.44,40.3 L7.44,50.6333333 C7.44,51.3911111 7.99111111,52.0111111 8.81777778,52.0111111 L8.81777778,52.0111111 Z M10.1955556,41.6777778 L24.3177778,41.6777778 L24.3177778,49.2555556 L10.1955556,49.2555556 L10.1955556,41.6777778 L10.1955556,41.6777778 Z" id="Shape"></path>
            <path d="M53.1822222,38.9222222 L36.3733333,38.9222222 C35.6155556,38.9222222 34.9955556,39.5422222 34.9955556,40.3 L34.9955556,50.6333333 C34.9955556,51.3911111 35.6155556,52.0111111 36.3733333,52.0111111 L53.2511111,52.0111111 C54.0088889,52.0111111 54.6288889,51.3911111 54.6288889,50.6333333 L54.6288889,40.3 C54.56,39.5422222 54.0088889,38.9222222 53.1822222,38.9222222 L53.1822222,38.9222222 Z M51.8044444,49.2555556 L37.7511111,49.2555556 L37.7511111,41.6777778 L51.8733333,41.6777778 L51.8733333,49.2555556 L51.8044444,49.2555556 Z" id="Shape"></path>
        </g>
    </g>
</svg>