<?xml version="1.0" encoding="UTF-8"?>
<svg width="62px" height="55px" viewBox="0 0 62 55" version="1.1" xmlns="http://www.w3.org/2000/svg" xmlns:xlink="http://www.w3.org/1999/xlink">
    <!-- Generator: Sketch 43.2 (39069) - http://www.bohemiancoding.com/sketch -->
    <title>prototype</title>
    <desc>Created with Sketch.</desc>
    <defs></defs>
    <g id="Page-1" stroke="none" stroke-width="1" fill="none" fill-rule="evenodd">
        <g id="prototype" fill-rule="nonzero" fill="#5F6A6C">
            <path d="M43.9027027,0.754054054 L1.34054054,0.754054054 C0.754054054,0.754054054 0.335135135,1.25675676 0.335135135,1.75945946 L0.335135135,12.1486486 C0.335135135,12.7351351 0.837837838,13.1540541 1.34054054,13.1540541 L6.61891892,13.1540541 L11.9810811,13.1540541 L17.3432432,13.1540541 L22.6216216,13.1540541 L27.9837838,13.1540541 L33.3459459,13.1540541 L38.7081081,13.1540541 L43.9864865,13.1540541 C44.572973,13.1540541 44.9918919,12.6513514 44.9918919,12.1486486 L44.9918919,1.75945946 C44.9081081,1.17297297 44.4891892,0.754054054 43.9027027,0.754054054 L43.9027027,0.754054054 Z M42.8135135,11.1432432 L39.6297297,11.1432432 L39.6297297,7.95945946 C39.6297297,7.37297297 39.127027,6.95405405 38.6243243,6.95405405 C38.0378378,6.95405405 37.6189189,7.45675676 37.6189189,7.95945946 L37.6189189,11.1432432 L34.3513514,11.1432432 L34.3513514,7.95945946 C34.3513514,7.37297297 33.8486486,6.95405405 33.3459459,6.95405405 C32.8432432,6.95405405 32.3405405,7.45675676 32.3405405,7.95945946 L32.3405405,11.1432432 L29.072973,11.1432432 L29.072973,7.95945946 C29.072973,7.37297297 28.5702703,6.95405405 28.0675676,6.95405405 C27.4810811,6.95405405 27.0621622,7.45675676 27.0621622,7.95945946 L27.0621622,11.1432432 L23.7945946,11.1432432 L23.7945946,7.95945946 C23.7945946,7.37297297 23.2918919,6.95405405 22.7891892,6.95405405 C22.2027027,6.95405405 21.7837838,7.45675676 21.7837838,7.95945946 L21.7837838,11.1432432 L18.5162162,11.1432432 L18.5162162,7.95945946 C18.5162162,7.37297297 18.0135135,6.95405405 17.5108108,6.95405405 C16.9243243,6.95405405 16.5054054,7.45675676 16.5054054,7.95945946 L16.5054054,11.1432432 L13.2378378,11.1432432 L13.2378378,7.95945946 C13.2378378,7.37297297 12.7351351,6.95405405 12.2324324,6.95405405 C11.6459459,6.95405405 11.227027,7.45675676 11.227027,7.95945946 L11.227027,11.1432432 L7.95945946,11.1432432 L7.95945946,7.95945946 C7.95945946,7.37297297 7.45675676,6.95405405 6.95405405,6.95405405 C6.36756757,6.95405405 5.94864865,7.45675676 5.94864865,7.95945946 L5.94864865,11.1432432 L2.76486486,11.1432432 L2.76486486,2.84864865 L43.2324324,2.84864865 L43.2324324,11.1432432 L42.8135135,11.1432432 Z" id="Shape"></path>
            <path d="M43.9027027,17.427027 L1.34054054,17.427027 C0.754054054,17.427027 0.335135135,17.9297297 0.335135135,18.4324324 L0.335135135,53.4540541 C0.335135135,54.0405405 0.837837838,54.4594595 1.34054054,54.4594595 L43.9027027,54.4594595 C44.4891892,54.4594595 44.9081081,53.9567568 44.9081081,53.4540541 L44.9081081,18.5162162 C44.9081081,17.9297297 44.4891892,17.427027 43.9027027,17.427027 L43.9027027,17.427027 Z M42.8135135,52.4486486 L34.3513514,52.4486486 L34.3513514,42.8972973 L42.8972973,42.8972973 L42.8972973,52.4486486 L42.8135135,52.4486486 Z M42.8135135,29.1567568 L34.3513514,29.1567568 L34.3513514,19.5216216 L42.8972973,19.5216216 L42.8972973,29.1567568 L42.8135135,29.1567568 Z M42.8135135,40.8027027 L34.3513514,40.8027027 L34.3513514,31.2513514 L42.8972973,31.2513514 L42.8972973,40.8027027 L42.8135135,40.8027027 Z M13.0702703,31.2513514 L21.6162162,31.2513514 L21.6162162,40.8027027 L13.0702703,40.8027027 L13.0702703,31.2513514 L13.0702703,31.2513514 Z M23.7108108,31.2513514 L32.2567568,31.2513514 L32.2567568,40.8027027 L23.7108108,40.8027027 L23.7108108,31.2513514 L23.7108108,31.2513514 Z M2.34594595,31.2513514 L10.9756757,31.2513514 L10.9756757,40.8027027 L2.34594595,40.8027027 L2.34594595,31.2513514 L2.34594595,31.2513514 Z M32.2567568,29.1567568 L23.7108108,29.1567568 L23.7108108,19.5216216 L32.2567568,19.5216216 L32.2567568,29.1567568 L32.2567568,29.1567568 Z M21.6162162,29.1567568 L13.0702703,29.1567568 L13.0702703,19.5216216 L21.6162162,19.5216216 L21.6162162,29.1567568 L21.6162162,29.1567568 Z M10.9756757,29.1567568 L2.34594595,29.1567568 L2.34594595,19.5216216 L10.9756757,19.5216216 L10.9756757,29.1567568 L10.9756757,29.1567568 Z M2.34594595,42.8972973 L10.9756757,42.8972973 L10.9756757,52.4486486 L2.34594595,52.4486486 L2.34594595,42.8972973 L2.34594595,42.8972973 Z M13.0702703,42.8972973 L21.6162162,42.8972973 L21.6162162,52.4486486 L13.0702703,52.4486486 L13.0702703,42.8972973 L13.0702703,42.8972973 Z M23.7108108,42.8972973 L32.2567568,42.8972973 L32.2567568,52.4486486 L23.7108108,52.4486486 L23.7108108,42.8972973 L23.7108108,42.8972973 Z" id="Shape"></path>
            <path d="M61.7486486,21.7837838 L61.7486486,21.5324324 C61.7486486,21.2810811 61.6648649,21.1135135 61.5810811,20.9459459 L56.8891892,11.227027 L56.8891892,8.7972973 C56.8891892,8.21081081 56.3864865,7.79189189 55.8837838,7.79189189 C55.2972973,7.79189189 54.8783784,8.29459459 54.8783784,8.7972973 L54.8783784,11.227027 L50.1027027,21.0297297 C50.0189189,21.1972973 50.0189189,21.3648649 50.0189189,21.4486486 L50.0189189,45.2432432 L50.0189189,49.5162162 C50.0189189,52.2810811 52.2810811,54.5432432 55.0459459,54.5432432 L56.8054054,54.5432432 C59.5702703,54.5432432 61.8324324,52.2810811 61.8324324,49.5162162 L61.8324324,45.4108108 L61.8324324,45.2432432 L61.8324324,45.0756757 L61.8324324,21.7837838 L61.7486486,21.7837838 Z M59.6540541,49.5162162 C59.6540541,51.1081081 58.3135135,52.4486486 56.7216216,52.4486486 L54.9621622,52.4486486 C53.3702703,52.4486486 52.0297297,51.1081081 52.0297297,49.5162162 L52.0297297,47.5891892 C53.1189189,48.0081081 54.5432432,48.2594595 55.8837838,48.2594595 C57.2243243,48.2594595 58.5648649,48.0918919 59.6540541,47.5891892 L59.6540541,49.5162162 L59.6540541,49.5162162 Z M55.8,13.8243243 L59.4864865,21.5324324 C59.0675676,21.8675676 57.8108108,22.3702703 55.8,22.3702703 C53.6216216,22.3702703 52.3648649,21.7837838 52.0297297,21.5324324 L55.8,13.8243243 L55.8,13.8243243 Z M55.8,24.5486486 C57.1405405,24.5486486 58.4810811,24.3810811 59.5702703,23.8783784 L59.5702703,45.2432432 C59.5702703,45.2432432 59.5702703,45.2432432 59.4864865,45.327027 C59.1513514,45.6621622 57.8945946,46.2486486 55.7162162,46.2486486 C53.3702703,46.2486486 52.0297297,45.5783784 51.8621622,45.327027 L51.8621622,23.8783784 C53.1189189,24.2972973 54.4594595,24.5486486 55.8,24.5486486 L55.8,24.5486486 Z" id="Shape"></path>
        </g>
    </g>
</svg>