<?xml version="1.0" encoding="UTF-8"?>
<svg width="62px" height="62px" viewBox="0 0 62 62" version="1.1" xmlns="http://www.w3.org/2000/svg" xmlns:xlink="http://www.w3.org/1999/xlink">
    <!-- Generator: Sketch 43.2 (39069) - http://www.bohemiancoding.com/sketch -->
    <title>responsive</title>
    <desc>Created with Sketch.</desc>
    <defs></defs>
    <g id="Page-1" stroke="none" stroke-width="1" fill="none" fill-rule="evenodd">
        <g id="responsive" fill-rule="nonzero" fill="#5F6A6C">
            <path d="M56.4950055,0 L5.43618202,0 C2.40843507,0 0,2.40843507 0,5.43618202 L0,56.563818 C0,59.5227525 2.40843507,62 5.43618202,62 L56.563818,62 C59.5227525,62 62,59.5915649 62,56.563818 L62,5.43618202 C61.9311876,2.40843507 59.5227525,0 56.4950055,0 L56.4950055,0 Z M12.3862375,59.1786903 L5.43618202,59.1786903 C3.92230855,59.1786903 2.75249723,58.008879 2.75249723,56.4950055 L2.75249723,17.2719201 L12.3862375,17.2719201 L12.3862375,59.1786903 L12.3862375,59.1786903 Z M29.5893452,59.1786903 L15.1387347,59.1786903 L15.1387347,17.2719201 L29.5893452,17.2719201 L29.5893452,59.1786903 L29.5893452,59.1786903 Z M59.1786903,56.4950055 C59.1786903,57.9400666 58.008879,59.1786903 56.4950055,59.1786903 L32.3418424,59.1786903 L32.3418424,17.2719201 L59.1786903,17.2719201 L59.1786903,56.4950055 L59.1786903,56.4950055 Z M59.1786903,14.5194229 L2.75249723,14.5194229 L2.75249723,5.43618202 C2.75249723,3.92230855 3.92230855,2.75249723 5.43618202,2.75249723 L56.563818,2.75249723 C58.008879,2.75249723 59.2475028,3.92230855 59.2475028,5.43618202 L59.2475028,14.5194229 L59.1786903,14.5194229 Z" id="Shape"></path>
            <circle id="Oval" cx="53.2384615" cy="8.79230769" r="1.38461538"></circle>
            <circle id="Oval" cx="46.3153846" cy="8.79230769" r="1.38461538"></circle>
            <circle id="Oval" cx="39.3923077" cy="8.79230769" r="1.38461538"></circle>
        </g>
    </g>
</svg>