<?xml version="1.0" encoding="UTF-8" standalone="no"?>
<svg width="91px" height="91px" viewBox="0 0 91 91" version="1.1" xmlns="http://www.w3.org/2000/svg" xmlns:xlink="http://www.w3.org/1999/xlink">
    <!-- Generator: Sketch 3.8.3 (29802) - http://www.bohemiancoding.com/sketch -->
    <title>responsive-design</title>
    <desc>Created with Sketch.</desc>
    <defs></defs>
    <g id="Page-1" stroke="none" stroke-width="1" fill="none" fill-rule="evenodd">
        <g id="responsive-design" fill="#000000">
            <path d="M82.1,0 L7.9,0 C3.5,0 0,3.5 0,7.9 L0,82.2 C0,86.5 3.5,90.1 7.9,90.1 L82.2,90.1 C86.5,90.1 90.1,86.6 90.1,82.2 L90.1,7.9 C90,3.5 86.5,0 82.1,0 L82.1,0 Z M18,86 L7.9,86 C5.7,86 4,84.3 4,82.1 L4,25.1 L18,25.1 L18,86 L18,86 Z M43,86 L22,86 L22,25.1 L43,25.1 L43,86 L43,86 Z M86,82.1 C86,84.2 84.3,86 82.1,86 L47,86 L47,25.1 L86,25.1 L86,82.1 L86,82.1 Z M86,21.1 L4,21.1 L4,7.9 C4,5.7 5.7,4 7.9,4 L82.2,4 C84.3,4 86.1,5.7 86.1,7.9 L86.1,21.1 L86,21.1 Z" id="Shape"></path>
            <circle id="Oval" cx="76.9" cy="12.7" r="2"></circle>
            <circle id="Oval" cx="66.9" cy="12.7" r="2"></circle>
            <circle id="Oval" cx="56.9" cy="12.7" r="2"></circle>
        </g>
    </g>
</svg>