<?xml version="1.0" encoding="UTF-8" standalone="no"?>
<svg width="66px" height="90px" viewBox="0 0 66 90" version="1.1" xmlns="http://www.w3.org/2000/svg" xmlns:xlink="http://www.w3.org/1999/xlink">
    <!-- Generator: Sketch 3.8.3 (29802) - http://www.bohemiancoding.com/sketch -->
    <title>sketch</title>
    <desc>Created with Sketch.</desc>
    <defs></defs>
    <g id="Page-1" stroke="none" stroke-width="1" fill="none" fill-rule="evenodd">
        <g id="sketch" fill="#000000">
            <g id="Group">
                <path d="M12.1058584,44 L21.2180994,34.04362 L26.9749354,34.04362 L22.2693674,44 L12.1058584,44 L12.1058584,44 Z M22.3408247,47 L29.9404295,69.9479169 L12.4668486,47 L22.3408247,47 L22.3408247,47 Z M25.9189137,44 L29.9622397,33.9973955 L36.8235674,33.9973955 L40.635481,44 L25.9189137,44 L25.9189137,44 Z M40.5207288,47 L33.3111979,72.927083 L25.6674194,47 L40.5207288,47 L40.5207288,47 Z M43.9817172,47 L37.2171224,69.5579443 L55.0287854,47 L43.9817172,47 L43.9817172,47 Z M44.1412715,44 L40.2252605,34.0797529 L46.0377607,34.0797529 L55.536188,44 L44.1412715,44 L44.1412715,44 Z M0,87.9975586 L0,2 C0,0 2,0 2,0 L48,0 L66,18 L66,88 C66,90 64,90 64,90 L2,90 C2,90 0,90 0,87.9975586 L0,87.9975586 Z M3,85.1177051 L3,4.88 C3,3 4.8208955,3 4.8208955,3 L45,3 L45,19 C45,21 47,21 47,21 L63,21 L63,85.12 C63,87 61.1791045,87 61.1791045,87 L4.8208955,87 C4.8208955,87 3,87 3,85.1177051 L3,85.1177051 Z M5.9067383,45.4067383 L19.5458984,31.1357422 L47.3237305,31.1357422 L60.7890625,45.4067383 L33.3479004,78.5058594 L5.9067383,45.4067383 L5.9067383,45.4067383 Z" id="Shape"></path>
            </g>
        </g>
    </g>
</svg>