<?xml version="1.0" encoding="UTF-8"?>
<svg width="73px" height="62px" viewBox="0 0 73 62" version="1.1" xmlns="http://www.w3.org/2000/svg" xmlns:xlink="http://www.w3.org/1999/xlink">
    <!-- Generator: Sketch 43.2 (39069) - http://www.bohemiancoding.com/sketch -->
    <title>sketch</title>
    <desc>Created with Sketch.</desc>
    <defs></defs>
    <g id="Page-1" stroke="none" stroke-width="1" fill="none" fill-rule="evenodd">
        <g id="sketch" fill-rule="nonzero" fill="#5F6A6C">
            <path d="M72.5172194,17.325107 C72.242989,17.8686398 71.8087909,18.7065862 71.8087909,18.7065862 C63.4447636,29.3054751 55.0350314,39.8817169 46.6481517,50.4806059 C44.1572255,53.6285665 41.6662994,56.7765271 39.1753733,59.9244878 C37.9413364,61.4871445 37.0272351,61.5324389 35.7017882,59.9924294 C24.8011298,47.4458813 13.9233239,34.876686 3.0455181,22.3301379 C2.24567943,21.42425 1.44584076,20.518362 0.668854634,19.5898269 C-0.245246699,18.5254085 -0.222394165,17.8006982 0.73741223,16.8268686 C5.9249373,11.5727185 11.1353149,6.31856844 16.2999874,1.06441834 C17.008416,0.33970798 17.7854021,0 18.8137661,0 C30.2628852,0.0226471987 41.734857,0.0226471987 53.1839762,0 C54.463718,0 55.4006719,0.385002378 56.2919207,1.26824313 C61.3423306,6.18268525 66.4384455,11.051833 71.4888553,15.9436279 C71.900201,16.3286303 72.1744314,16.8268686 72.5172194,17.325107 L72.5172194,17.325107 L72.5172194,17.325107 Z M37.1643504,53.2888586 C37.2557605,53.2888586 37.3471706,53.2662114 37.4385808,53.2662114 C40.4551151,42.169084 43.4716495,31.0719567 46.5110364,19.8615933 L26.3779546,19.8615933 C30.0115074,31.0946038 33.5765026,42.1917312 37.1643504,53.2888586 L37.1643504,53.2888586 L37.1643504,53.2888586 Z M5.17080369,19.8162988 C14.5860474,30.664307 23.7956183,41.2858432 33.0051893,51.8847323 C32.3196133,48.8726548 31.3826594,46.0191078 30.4685581,43.1429135 C28.0690421,35.7146324 25.6695261,28.263704 23.3157151,20.8354228 C23.0643373,20.0427708 22.6986967,19.7710045 21.8760055,19.8162988 C20.482001,19.8842405 19.0651439,19.8162988 17.6482869,19.8162988 L5.17080369,19.8162988 L5.17080369,19.8162988 L5.17080369,19.8162988 Z M66.7812335,19.8162988 L53.092566,19.8162988 L49.9817427,19.8162988 C49.9817427,19.8162988 49.4133082,21.8318995 49.1162252,22.8057291 C49.1162252,22.8510235 49.0933728,22.8736707 49.0933728,22.9189651 C46.6938567,31.683431 44.3171932,40.4478969 41.9176772,49.23501 C41.7120044,50.0050147 41.5291842,50.7976667 41.3235114,51.5903187 C41.392069,51.635613 41.4834791,51.6582603 41.5520367,51.7035547 C49.8932114,41.1273128 58.2572385,30.5963654 66.7812335,19.8162988 L66.7812335,19.8162988 L66.7812335,19.8162988 Z M45.0941794,16.6230438 C42.1690551,12.5691953 39.4038986,8.7418187 36.593037,4.82385333 C33.6222077,8.80976029 30.7884936,12.6144897 27.8176642,16.6230438 L45.0941794,16.6230438 L45.0941794,16.6230438 L45.0941794,16.6230438 Z M67.5582197,16.6003967 C63.2619433,12.4786065 59.217045,8.60593551 55.0350314,4.59738134 C53.6410268,8.7191715 52.3384324,12.5918425 50.990133,16.6003967 L67.5582197,16.6003967 L67.5582197,16.6003967 L67.5582197,16.6003967 Z M17.396909,4.62002854 C13.4205683,8.65122991 9.58134261,12.5012537 5.60500183,16.5324551 L21.7617428,16.5324551 C20.2991807,12.5465481 18.9051762,8.7191715 17.396909,4.62002854 L17.396909,4.62002854 L17.396909,4.62002854 Z M24.7782773,15.2189175 C27.7719591,11.1877162 30.6513783,7.33769238 33.6222077,3.35178541 L20.436296,3.35178541 C21.8760055,7.31504518 23.2928626,11.165069 24.7782773,15.2189175 L24.7782773,15.2189175 L24.7782773,15.2189175 Z M39.5410138,3.32913821 C42.420433,7.31504518 45.162737,11.1197746 48.0193036,15.1056815 C49.4133082,11.0065386 50.69305,7.22445639 51.9956444,3.32913821 L39.5410138,3.32913821 L39.5410138,3.32913821 L39.5410138,3.32913821 Z" id="Shape"></path>
        </g>
    </g>
</svg>