<?xml version="1.0" encoding="UTF-8" standalone="no"?>
<svg width="90px" height="90px" viewBox="0 0 90 90" version="1.1" xmlns="http://www.w3.org/2000/svg" xmlns:xlink="http://www.w3.org/1999/xlink">
    <!-- Generator: Sketch 3.8.3 (29802) - http://www.bohemiancoding.com/sketch -->
    <title>ux-design</title>
    <desc>Created with Sketch.</desc>
    <defs></defs>
    <g id="Page-1" stroke="none" stroke-width="1" fill="none" fill-rule="evenodd">
        <g id="ux-design" fill="#000000">
            <path d="M84,0 L6,0 C2.7,0 0,2.7 0,6 L0,15.8 L0,19.8 L0,84 C0,87.3 2.7,90 6,90 L84,90 C87.3,90 90,87.3 90,84 L90,19.8 L90,15.8 L90,6 C90,2.7 87.3,0 84,0 L84,0 Z M86,84 C86,85.1 85.1,86 84,86 L6,86 C4.9,86 4,85.1 4,84 L4,19.8 L86,19.8 L86,84 L86,84 Z M4,15.8 L4,6 C4,4.9 4.9,4 6,4 L84,4 C85.1,4 86,4.9 86,6 L86,15.8 L4,15.8 L4,15.8 Z" id="Shape"></path>
            <circle id="Oval" cx="81" cy="10.2" r="2"></circle>
            <circle id="Oval" cx="72.5" cy="10.2" r="2"></circle>
            <circle id="Oval" cx="64" cy="10.2" r="2"></circle>
            <path d="M12.8,46.5 L77.3,46.5 C78.4,46.5 79.3,45.6 79.3,44.5 L79.3,29.5 C79.3,28.4 78.4,27.5 77.3,27.5 L12.8,27.5 C11.7,27.5 10.8,28.4 10.8,29.5 L10.8,44.5 C10.8,45.6 11.6,46.5 12.8,46.5 L12.8,46.5 Z M14.8,31.5 L75.3,31.5 L75.3,42.5 L14.8,42.5 L14.8,31.5 L14.8,31.5 Z" id="Shape"></path>
            <path d="M12.8,75.5 L37.3,75.5 C38.4,75.5 39.3,74.6 39.3,73.5 L39.3,58.5 C39.3,57.4 38.4,56.5 37.3,56.5 L12.8,56.5 C11.7,56.5 10.8,57.4 10.8,58.5 L10.8,73.5 C10.8,74.6 11.6,75.5 12.8,75.5 L12.8,75.5 Z M14.8,60.5 L35.3,60.5 L35.3,71.5 L14.8,71.5 L14.8,60.5 L14.8,60.5 Z" id="Shape"></path>
            <path d="M77.2,56.5 L52.8,56.5 C51.7,56.5 50.8,57.4 50.8,58.5 L50.8,73.5 C50.8,74.6 51.7,75.5 52.8,75.5 L77.3,75.5 C78.4,75.5 79.3,74.6 79.3,73.5 L79.3,58.5 C79.2,57.4 78.4,56.5 77.2,56.5 L77.2,56.5 Z M75.2,71.5 L54.8,71.5 L54.8,60.5 L75.3,60.5 L75.3,71.5 L75.2,71.5 Z" id="Shape"></path>
        </g>
    </g>
</svg>