<?xml version="1.0" encoding="utf-8"?>
<!-- Generator: Adobe Illustrator 19.2.1, SVG Export Plug-In . SVG Version: 6.00 Build 0)  -->
<!DOCTYPE svg PUBLIC "-//W3C//DTD SVG 1.1//EN" "http://www.w3.org/Graphics/SVG/1.1/DTD/svg11.dtd">
<svg version="1.1" id="Layer_1" xmlns="http://www.w3.org/2000/svg" xmlns:xlink="http://www.w3.org/1999/xlink" x="0px" y="0px"
	 viewBox="0 0 8.8 47.7" style="enable-background:new 0 0 8.8 47.7;" xml:space="preserve">
<style type="text/css">
	.st0{fill:#FFFFFF;}
</style>
<g>
	<path class="st0" d="M8.7,44v1H1v2.7H0.1v-6.4H1V44H8.7z"/>
	<path class="st0" d="M8.7,32.6v1h-4v4.5h4v1H0.1v-1h3.6v-4.5H0.1v-1H8.7z"/>
	<path class="st0" d="M0.1,22.8h5.5c1,0,1.7,0.3,2.3,0.9s0.8,1.4,0.8,2.4S8.5,27.9,8,28.5s-1.3,0.8-2.3,0.8H0.1v-1h5.6
		c0.7,0,1.3-0.2,1.6-0.6s0.6-1,0.6-1.7c0-0.7-0.2-1.3-0.6-1.7s-0.9-0.6-1.7-0.6H0.1V22.8z"/>
	<path class="st0" d="M8.7,14.4v5.9H7.9L1,15.7v4.4H0.1v-5.6h0.8L7.8,19v-4.7H8.7z"/>
	<path class="st0" d="M8.7,11.7H0.1v-1h8.6V11.7z"/>
	<path class="st0" d="M4.4,0c1.4,0,2.4,0.3,3.2,1s1.2,1.7,1.2,2.9c0,1.3-0.4,2.2-1.2,2.9s-1.9,1-3.3,1c-1.4,0-2.5-0.3-3.2-1
		S0,5.2,0,3.9C0,2.7,0.4,1.7,1.2,1S3,0,4.4,0z M4.4,6.8c1.2,0,2-0.2,2.6-0.7s0.9-1.2,0.9-2.2C7.9,3,7.6,2.3,7,1.8S5.6,1.1,4.4,1.1
		c-1.2,0-2,0.2-2.6,0.7S0.9,3,0.9,3.9c0,0.9,0.3,1.7,0.9,2.2S3.3,6.8,4.4,6.8z"/>
</g>
</svg>
