<?xml version="1.0" encoding="UTF-8" standalone="no"?>
<svg width="152px" height="152px" viewBox="0 0 152 152" version="1.1" xmlns="http://www.w3.org/2000/svg" xmlns:xlink="http://www.w3.org/1999/xlink">
    <!-- Generator: Sketch 3.8.3 (29802) - http://www.bohemiancoding.com/sketch -->
    <title>Applications</title>
    <desc>Created with Sketch.</desc>
    <defs></defs>
    <g id="Page-1" stroke="none" stroke-width="1" fill="none" fill-rule="evenodd">
        <g id="Desktop-HD" transform="translate(-1004.000000, -1060.000000)">
            <g id="Group-Copy" transform="translate(289.000000, 950.000000)">
                <g id="Prototype" transform="translate(0.000000, 111.000000)">
                    <g id="Applications" transform="translate(716.000000, -0.000000)">
                        <circle id="Oval-1-Copy-3" stroke="#CACACA" stroke-width="2" fill="#F8F8F8" cx="75" cy="75" r="75"></circle>
                        <path d="M105.242731,43.292676 L117,56.9276012 L75.5,113.21712 L34,56.9276012 L45.7582269,43.2933111 L60.6292731,37 L90.3697689,37 L105.242731,43.2933111 L105.242731,43.292676 L105.242731,43.292676 L105.242731,43.292676 Z M63.0499999,91.7477102 L51.9832269,71.5406462 L43.2682269,64.9678723 L63.0499999,91.7477102 L63.0499999,91.7477102 L63.0499999,91.7477102 L63.0499999,91.7477102 Z M95.490231,71.9598403 L55.3725,71.9598403 L75.4297693,108.531355 L95.490231,71.9598403 L95.490231,71.9598403 L95.490231,71.9598403 L95.490231,71.9598403 Z M87.8127307,91.7477102 L98.877269,71.5406462 L107.592269,64.9678723 L87.8127307,91.7477102 L87.8127307,91.7477102 L87.8127307,91.7477102 L87.8127307,91.7477102 Z M52.6047692,68.5341984 L37.4572692,57.0666975 L46.6565423,46.3683544 L59.7290423,52.7312136 L52.6047692,68.5341984 L52.6047692,68.5341984 L52.6047692,68.5341984 L52.6047692,68.5341984 Z M62.2883153,53.7801517 L55.3715423,69.162037 L95.4892729,69.162037 L88.5715423,53.7801517 L62.2883153,53.7801517 L62.2883153,53.7801517 L62.2883153,53.7801517 L62.2883153,53.7801517 Z M98.2528539,68.5341984 L113.400354,57.0666975 L104.203315,46.3683544 L91.1308153,52.7312136 L98.2528539,68.5341984 L98.2528539,68.5341984 L98.2528539,68.5341984 L98.2528539,68.5341984 Z M88.5705846,50.983301 L62.2873578,50.983301 L49.5605846,44.6899899 L61.1113115,39.7952629 L89.7453538,39.7953582 L101.298315,44.6900851 L88.5705846,50.9833963 L88.5705846,50.983301 L88.5705846,50.983301 L88.5705846,50.983301 Z" id="Shape" fill="#CACACA"></path>
                    </g>
                </g>
            </g>
        </g>
    </g>
</svg>