<?xml version="1.0" encoding="UTF-8" standalone="no"?>
<svg width="152px" height="152px" viewBox="0 0 152 152" version="1.1" xmlns="http://www.w3.org/2000/svg" xmlns:xlink="http://www.w3.org/1999/xlink">
    <!-- Generator: Sketch 3.8.3 (29802) - http://www.bohemiancoding.com/sketch -->
    <title>Proto</title>
    <desc>Created with Sketch.</desc>
    <defs></defs>
    <g id="Page-1" stroke="none" stroke-width="1" fill="none" fill-rule="evenodd">
        <g id="Desktop-HD" transform="translate(-526.000000, -1060.000000)">
            <g id="Group-Copy" transform="translate(289.000000, 950.000000)">
                <g id="Prototype" transform="translate(0.000000, 111.000000)">
                    <g id="Proto" transform="translate(238.000000, 0.000000)">
                        <circle id="Oval-1-Copy" stroke="#CACACA" stroke-width="2" fill="#F8F8F8" cx="75" cy="75" r="75"></circle>
                        <g id="Group" transform="translate(28.000000, 42.000000)" fill="#CACACA">
                            <g id="Page-1">
                                <g id="Group">
                                    <g id="code" transform="translate(0.000000, 8.966543)">
                                        <g id="Page-1">
                                            <g id="code">
                                                <path d="M3.15723178,27.890685 L-9.09494702e-13,24.7058568 L24.4917813,0 L30.806245,6.36965643 L12.6289271,24.7058568 L30.806245,43.0420571 L24.4917813,49.4117137 L3.15723178,27.890685 L3.15723178,27.890685 L3.15723178,27.890685 Z M90.7279602,27.890685 L93.8851921,24.7058568 L69.3934107,0 L63.0789474,6.36965643 L81.2562651,24.7058568 L63.0789474,43.0420571 L69.3934107,49.4117137 L90.7279602,27.890685 L90.7279602,27.890685 L90.7279602,27.890685 Z" id="Combined-Shape"></path>
                                            </g>
                                        </g>
                                    </g>
                                    <rect id="Rectangle-1" transform="translate(46.953589, 33.500000) scale(-1, 1) rotate(75.000000) translate(-46.953589, -33.500000) " x="13.6052632" y="29.6394051" width="66.6966524" height="7.72118959"></rect>
                                </g>
                            </g>
                        </g>
                    </g>
                </g>
            </g>
        </g>
    </g>
</svg>