<?xml version="1.0" encoding="UTF-8" standalone="no"?>
<svg width="152px" height="152px" viewBox="0 0 152 152" version="1.1" xmlns="http://www.w3.org/2000/svg" xmlns:xlink="http://www.w3.org/1999/xlink">
    <!-- Generator: Sketch 3.8.3 (29802) - http://www.bohemiancoding.com/sketch -->
    <title>Responsive</title>
    <desc>Created with Sketch.</desc>
    <defs></defs>
    <g id="Page-1" stroke="none" stroke-width="1" fill="none" fill-rule="evenodd">
        <g id="Desktop-HD" transform="translate(-765.000000, -1060.000000)">
            <g id="Group-Copy" transform="translate(289.000000, 950.000000)">
                <g id="Prototype" transform="translate(0.000000, 111.000000)">
                    <g id="Responsive" transform="translate(477.000000, 0.000000)">
                        <path d="M75,150 C116.421356,150 150,116.421356 150,75 C150,33.5786438 116.421356,-9.09494702e-13 75,-9.09494702e-13 C33.5786438,-9.09494702e-13 0,33.5786438 0,75 C0,116.421356 33.5786438,150 75,150 Z" id="Oval-1-Copy-2" stroke="#CACACA" stroke-width="2" fill="#F8F8F8"></path>
                        <path d="M90.2721354,40 C92.0282206,40 93.5260355,40.6197855 94.765625,41.859375 C96.0052145,43.0989645 96.625,44.5967794 96.625,46.3528646 L96.625,103.063802 C96.625,104.819887 96.0052145,106.317702 94.765625,107.557292 C93.5260355,108.796881 92.0282206,109.416667 90.2721354,109.416667 L58.3528646,109.416667 C56.5967794,109.416667 55.0989645,108.796881 53.859375,107.557292 C52.6197855,106.317702 52,104.819887 52,103.063802 L52,46.3528646 C52,44.5967794 52.6197855,43.0989645 53.859375,41.859375 C55.0989645,40.6197855 56.5967794,40 58.3528646,40 L90.2721354,40 Z M91.046875,97.0208333 L91.046875,52.3958333 L57.578125,52.3958333 L57.578125,97.0208333 L91.046875,97.0208333 Z" id="ion-android-phone-portrait---Ionicons" fill="#CACACA"></path>
                    </g>
                </g>
            </g>
        </g>
    </g>
</svg>